<?xml version="1.0" encoding="utf-8" standalone="no"?><svg xmlns="http://www.w3.org/2000/svg" xmlns:xlink="http://www.w3.org/1999/xlink" width="261" height="273" viewBox="3999 2999 261 273"><title>Photo View</title><style type="text/css">
path, polyline, polygon {stroke-linejoin:round;}
path, polyline, polygon, line {stroke-linecap:round;}
rect, circle, ellipse, polyline, polygon, line, path {shape-rendering:crispEdges;}
*[layerid="0"] {stroke:#FFFFFF; FILL:#FFFFFF;}*[layerid="1"] {stroke:#00BE00; fill:#00BE00;}*[layerid="2"] {stroke:#00BE00; fill:#00BE00;}*[layerid="3"] {stroke:#FFFFFF; fill:#FFFFFF;}*[layerid="4"] {stroke:#FFFFFF; fill:#FFFFFF;}*[layerid="5"] {stroke:#808080; fill:#808080;}*[layerid="6"] {stroke:#800000; fill:#800000;}*[layerid="7"] {stroke:#DCAA14; fill:#DCAA14;}*[layerid="8"] {stroke:#DCAA14; fill:#DCAA14;}*[layerid="9"] {display:none}*[layerid="10"] {stroke:#0B3B0B; fill:#0B3B0B;}*[layerid="11"] {stroke:#C0C0C0; fill:#C0C0C0;}*[layerid="12"] {stroke:#FFFFFF; fill:#FFFFFF;}*[layerid="13"] {stroke:#33CC99; fill:#33CC99;}*[layerid="14"] {stroke:#5555FF; fill:#5555FF;}*[layerid="15"] {stroke:#F022F0; fill:#F022F0;}*[layerid="16"] {stroke:#FFFFFF; FILL:#FFFFFF;}*[layerid="17"] {stroke:#FFFFFF; FILL:#FFFFFF;}*[layerid="18"] {stroke:#FFFFFF; FILL:#FFFFFF;}*[layerid="19"] {stroke:#FFFFFF; FILL:#FFFFFF;}*[layerid="20"] {stroke:#FFFFFF; FILL:#FFFFFF;}*[layerid="21"] {stroke:#800000; fill:#800000;}*[layerid="22"] {stroke:#008000; fill:#008000;}*[layerid="23"] {stroke:#00FF00; fill:#00FF00;}*[layerid="24"] {stroke:#000080; fill:#000080;}*[fill="none"] {fill: none;}
*[stroke="none"] {stroke: none;}
g[c_partid="part_pad"] > * + circle {fill: #111111;}
g[c_partid="part_via"] > * + circle {fill: #111111;}
g[c_partid="part_pad"] > polyline:nth-child(2) {stroke: #111111;}</style>
<rect x="3999" y="2999" width="261" height="273" fill="#111111" stroke="none"/><g style="pointer-events: none;" transform="matrix(-1, 0, 0, 1, 8259, 0)"><path d="M4049,3222 4049,3049 4210,3049 4210,3222z" layerid="10"/><path d="M4049,3222 4049,3171 4108.4105,3171 4108.4105,3176.717 4107.107,3176.717 4107.0657,3176.7179 4107.0244,3176.7204 4106.9833,3176.7247 4106.9424,3176.7306 4106.9018,3176.7383 4106.8615,3176.7476 4106.8217,3176.7586 4106.7823,3176.7712 4106.7435,3176.7854 4106.7053,3176.8012 4106.6678,3176.8186 4106.6311,3176.8375 4106.5951,3176.8579 4106.5601,3176.8798 4106.5259,3176.9032 4106.4928,3176.9279 4106.4607,3176.9539 4106.4297,3176.9813 4106.3999,3177.0099 4106.3713,3177.0397 4106.3439,3177.0707 4106.3179,3177.1028 4106.2932,3177.1359 4106.2698,3177.1701 4106.2479,3177.2051 4106.2275,3177.2411 4106.2086,3177.2778 4106.1912,3177.3153 4106.1754,3177.3535 4106.1612,3177.3923 4106.1486,3177.4317 4106.1376,3177.4715 4106.1283,3177.5118 4106.1206,3177.5524 4106.1147,3177.5933 4106.1104,3177.6344 4106.1079,3177.6757 4106.107,3177.717 4106.107,3182.284 4106.1079,3182.3253 4106.1104,3182.3666 4106.1147,3182.4077 4106.1206,3182.4486 4106.1283,3182.4892 4106.1376,3182.5295 4106.1486,3182.5693 4106.1612,3182.6087 4106.1754,3182.6475 4106.1912,3182.6857 4106.2086,3182.7232 4106.2275,3182.7599 4106.2479,3182.7959 4106.2698,3182.8309 4106.2932,3182.8651 4106.3179,3182.8982 4106.3439,3182.9303 4106.3713,3182.9613 4106.3999,3182.9911 4106.4297,3183.0197 4106.4607,3183.0471 4106.4928,3183.0731 4106.5259,3183.0978 4106.5601,3183.1212 4106.5951,3183.1431 4106.6311,3183.1635 4106.6678,3183.1824 4106.7053,3183.1998 4106.7435,3183.2156 4106.7823,3183.2298 4106.8217,3183.2424 4106.8615,3183.2534 4106.9018,3183.2627 4106.9424,3183.2704 4106.9833,3183.2763 4107.0244,3183.2806 4107.0657,3183.2831 4107.107,3183.284 4112.894,3183.284 4112.9353,3183.2831 4112.9766,3183.2806 4113.0177,3183.2763 4113.0586,3183.2704 4113.0992,3183.2627 4113.1395,3183.2534 4113.1793,3183.2424 4113.2187,3183.2298 4113.2575,3183.2156 4113.2957,3183.1998 4113.3332,3183.1824 4113.3699,3183.1635 4113.4059,3183.1431 4113.4409,3183.1212 4113.4751,3183.0978 4113.5082,3183.0731 4113.5403,3183.0471 4113.5713,3183.0197 4113.6011,3182.9911 4113.6297,3182.9613 4113.6571,3182.9303 4113.6831,3182.8982 4113.7078,3182.8651 4113.7312,3182.8309 4113.7531,3182.7959 4113.7735,3182.7599 4113.7924,3182.7232 4113.8098,3182.6857 4113.8256,3182.6475 4113.8398,3182.6087 4113.8524,3182.5693 4113.8634,3182.5295 4113.8727,3182.4892 4113.8804,3182.4486 4113.8863,3182.4077 4113.8906,3182.3666 4113.8931,3182.3253 4113.894,3182.284 4113.894,3177.717 4113.8931,3177.6757 4113.8906,3177.6344 4113.8863,3177.5933 4113.8804,3177.5524 4113.8727,3177.5118 4113.8634,3177.4715 4113.8524,3177.4317 4113.8398,3177.3923 4113.8256,3177.3535 4113.8098,3177.3153 4113.7924,3177.2778 4113.7735,3177.2411 4113.7531,3177.2051 4113.7312,3177.1701 4113.7078,3177.1359 4113.6831,3177.1028 4113.6571,3177.0707 4113.6297,3177.0397 4113.6011,3177.0099 4113.5713,3176.9813 4113.5403,3176.9539 4113.5082,3176.9279 4113.4751,3176.9032 4113.4409,3176.8798 4113.4059,3176.8579 4113.3699,3176.8375 4113.3332,3176.8186 4113.2957,3176.8012 4113.2575,3176.7854 4113.2187,3176.7712 4113.1793,3176.7586 4113.1395,3176.7476 4113.0992,3176.7383 4113.0586,3176.7306 4113.0177,3176.7247 4112.9766,3176.7204 4112.9353,3176.7179 4112.894,3176.717 4111.5915,3176.717 4111.5915,3171 4119.4095,3171 4119.4095,3185.4325 4119.3745,3185.4406 4119.3347,3185.4516 4119.2953,3185.4642 4119.2565,3185.4784 4119.2183,3185.4942 4119.1808,3185.5116 4119.1441,3185.5305 4119.1081,3185.5509 4119.0731,3185.5728 4119.0389,3185.5962 4119.0058,3185.6209 4118.9737,3185.6469 4118.9427,3185.6743 4118.9129,3185.7029 4118.8843,3185.7327 4118.8569,3185.7637 4118.8309,3185.7958 4118.8062,3185.8289 4118.7828,3185.8631 4118.7609,3185.8981 4118.7405,3185.9341 4118.7216,3185.9708 4118.7042,3186.0083 4118.6884,3186.0465 4118.6742,3186.0853 4118.6616,3186.1247 4118.6506,3186.1645 4118.6413,3186.2048 4118.6336,3186.2454 4118.6277,3186.2863 4118.6234,3186.3274 4118.6209,3186.3687 4118.62,3186.41 4118.62,3195.07 4118.6209,3195.1113 4118.6234,3195.1526 4118.6277,3195.1937 4118.6336,3195.2346 4118.6413,3195.2752 4118.6506,3195.3155 4118.6616,3195.3553 4118.6742,3195.3947 4118.6884,3195.4335 4118.7042,3195.4717 4118.7216,3195.5092 4118.7405,3195.5459 4118.7609,3195.5819 4118.7828,3195.6169 4118.8062,3195.6511 4118.8309,3195.6842 4118.8569,3195.7163 4118.8843,3195.7473 4118.9129,3195.7771 4118.9427,3195.8057 4118.9737,3195.8331 4119.0058,3195.8591 4119.0389,3195.8838 4119.0731,3195.9072 4119.1081,3195.9291 4119.1441,3195.9495 4119.1808,3195.9684 4119.2183,3195.9858 4119.2565,3196.0016 4119.2953,3196.0158 4119.3347,3196.0284 4119.3745,3196.0394 4119.4148,3196.0487 4119.4554,3196.0564 4119.4963,3196.0623 4119.5374,3196.0666 4119.5787,3196.0691 4119.62,3196.07 4122.38,3196.07 4122.4213,3196.0691 4122.4626,3196.0666 4122.5037,3196.0623 4122.5446,3196.0564 4122.5852,3196.0487 4122.6255,3196.0394 4122.6653,3196.0284 4122.7047,3196.0158 4122.7435,3196.0016 4122.7817,3195.9858 4122.8192,3195.9684 4122.8559,3195.9495 4122.8919,3195.9291 4122.9269,3195.9072 4122.9611,3195.8838 4122.9942,3195.8591 4123.0263,3195.8331 4123.0573,3195.8057 4123.0871,3195.7771 4123.1157,3195.7473 4123.1431,3195.7163 4123.1691,3195.6842 4123.1938,3195.6511 4123.2172,3195.6169 4123.2391,3195.5819 4123.2595,3195.5459 4123.2784,3195.5092 4123.2958,3195.4717 4123.3116,3195.4335 4123.3258,3195.3947 4123.3384,3195.3553 4123.3494,3195.3155 4123.3587,3195.2752 4123.3664,3195.2346 4123.3723,3195.1937 4123.3766,3195.1526 4123.3791,3195.1113 4123.38,3195.07 4123.38,3186.41 4123.3791,3186.3687 4123.3766,3186.3274 4123.3723,3186.2863 4123.3664,3186.2454 4123.3587,3186.2048 4123.3494,3186.1645 4123.3384,3186.1247 4123.3258,3186.0853 4123.3116,3186.0465 4123.2958,3186.0083 4123.2784,3185.9708 4123.2595,3185.9341 4123.2391,3185.8981 4123.2172,3185.8631 4123.1938,3185.8289 4123.1691,3185.7958 4123.1431,3185.7637 4123.1157,3185.7327 4123.0871,3185.7029 4123.0573,3185.6743 4123.0263,3185.6469 4122.9942,3185.6209 4122.9611,3185.5962 4122.9269,3185.5728 4122.8919,3185.5509 4122.8559,3185.5305 4122.8192,3185.5116 4122.7817,3185.4942 4122.7435,3185.4784 4122.7047,3185.4642 4122.6653,3185.4516 4122.6255,3185.4406 4122.5905,3185.4325 4122.5905,3171 4140.4085,3171 4140.4085,3176.716 4139.106,3176.716 4139.0647,3176.7169 4139.0234,3176.7194 4138.9823,3176.7237 4138.9414,3176.7296 4138.9008,3176.7373 4138.8605,3176.7466 4138.8207,3176.7576 4138.7813,3176.7702 4138.7425,3176.7844 4138.7043,3176.8002 4138.6668,3176.8176 4138.6301,3176.8365 4138.5941,3176.8569 4138.5591,3176.8788 4138.5249,3176.9022 4138.4918,3176.9269 4138.4597,3176.9529 4138.4287,3176.9803 4138.3989,3177.0089 4138.3703,3177.0387 4138.3429,3177.0697 4138.3169,3177.1018 4138.2922,3177.1349 4138.2688,3177.1691 4138.2469,3177.2041 4138.2265,3177.2401 4138.2076,3177.2768 4138.1902,3177.3143 4138.1744,3177.3525 4138.1602,3177.3913 4138.1476,3177.4307 4138.1366,3177.4705 4138.1273,3177.5108 4138.1196,3177.5514 4138.1137,3177.5923 4138.1094,3177.6334 4138.1069,3177.6747 4138.106,3177.716 4138.106,3182.283 4138.1069,3182.3243 4138.1094,3182.3656 4138.1137,3182.4067 4138.1196,3182.4476 4138.1273,3182.4882 4138.1366,3182.5285 4138.1476,3182.5683 4138.1602,3182.6077 4138.1744,3182.6465 4138.1902,3182.6847 4138.2076,3182.7222 4138.2265,3182.7589 4138.2469,3182.7949 4138.2688,3182.8299 4138.2922,3182.8641 4138.3169,3182.8972 4138.3429,3182.9293 4138.3703,3182.9603 4138.3989,3182.9901 4138.4287,3183.0187 4138.4597,3183.0461 4138.4918,3183.0721 4138.5249,3183.0968 4138.5591,3183.1202 4138.5941,3183.1421 4138.6301,3183.1625 4138.6668,3183.1814 4138.7043,3183.1988 4138.7425,3183.2146 4138.7813,3183.2288 4138.8207,3183.2414 4138.8605,3183.2524 4138.9008,3183.2617 4138.9414,3183.2694 4138.9823,3183.2753 4139.0234,3183.2796 4139.0647,3183.2821 4139.106,3183.283 4144.893,3183.283 4144.9343,3183.2821 4144.9756,3183.2796 4145.0167,3183.2753 4145.0576,3183.2694 4145.0982,3183.2617 4145.1385,3183.2524 4145.1783,3183.2414 4145.2177,3183.2288 4145.2565,3183.2146 4145.2947,3183.1988 4145.3322,3183.1814 4145.3689,3183.1625 4145.4049,3183.1421 4145.4399,3183.1202 4145.4741,3183.0968 4145.5072,3183.0721 4145.5393,3183.0461 4145.5703,3183.0187 4145.6001,3182.9901 4145.6287,3182.9603 4145.6561,3182.9293 4145.6821,3182.8972 4145.7068,3182.8641 4145.7302,3182.8299 4145.7521,3182.7949 4145.7725,3182.7589 4145.7914,3182.7222 4145.8088,3182.6847 4145.8246,3182.6465 4145.8388,3182.6077 4145.8514,3182.5683 4145.8624,3182.5285 4145.8717,3182.4882 4145.8794,3182.4476 4145.8853,3182.4067 4145.8896,3182.3656 4145.8921,3182.3243 4145.893,3182.283 4145.893,3177.716 4145.8921,3177.6747 4145.8896,3177.6334 4145.8853,3177.5923 4145.8794,3177.5514 4145.8717,3177.5108 4145.8624,3177.4705 4145.8514,3177.4307 4145.8388,3177.3913 4145.8246,3177.3525 4145.8088,3177.3143 4145.7914,3177.2768 4145.7725,3177.2401 4145.7521,3177.2041 4145.7302,3177.1691 4145.7068,3177.1349 4145.6821,3177.1018 4145.6561,3177.0697 4145.6287,3177.0387 4145.6001,3177.0089 4145.5703,3176.9803 4145.5393,3176.9529 4145.5072,3176.9269 4145.4741,3176.9022 4145.4399,3176.8788 4145.4049,3176.8569 4145.3689,3176.8365 4145.3322,3176.8176 4145.2947,3176.8002 4145.2565,3176.7844 4145.2177,3176.7702 4145.1783,3176.7576 4145.1385,3176.7466 4145.0982,3176.7373 4145.0576,3176.7296 4145.0167,3176.7237 4144.9756,3176.7194 4144.9343,3176.7169 4144.893,3176.716 4143.5895,3176.716 4143.5895,3171 4210,3171 4210,3222zM4126.69,3209.835 4128.38,3209.835 4128.38,3207.67 4128.3791,3207.6287 4128.3766,3207.5874 4128.3723,3207.5463 4128.3664,3207.5054 4128.3587,3207.4648 4128.3494,3207.4245 4128.3384,3207.3847 4128.3258,3207.3453 4128.3116,3207.3065 4128.2958,3207.2683 4128.2784,3207.2308 4128.2595,3207.1941 4128.2391,3207.1581 4128.2172,3207.1231 4128.1938,3207.0889 4128.1691,3207.0558 4128.1431,3207.0237 4128.1157,3206.9927 4128.0871,3206.9629 4128.0573,3206.9343 4128.0263,3206.9069 4127.9942,3206.8809 4127.9611,3206.8562 4127.9269,3206.8328 4127.8919,3206.8109 4127.8559,3206.7905 4127.8192,3206.7716 4127.7817,3206.7542 4127.7435,3206.7384 4127.7047,3206.7242 4127.6653,3206.7116 4127.6255,3206.7006 4127.5852,3206.6913 4127.5446,3206.6836 4127.5037,3206.6777 4127.4626,3206.6734 4127.4213,3206.6709 4127.38,3206.67 4126.69,3206.67zM4124.62,3196.07 4127.38,3196.07 4127.4213,3196.0691 4127.4626,3196.0666 4127.5037,3196.0623 4127.5446,3196.0564 4127.5852,3196.0487 4127.6255,3196.0394 4127.6653,3196.0284 4127.7047,3196.0158 4127.7435,3196.0016 4127.7817,3195.9858 4127.8192,3195.9684 4127.8559,3195.9495 4127.8919,3195.9291 4127.9269,3195.9072 4127.9611,3195.8838 4127.9942,3195.8591 4128.0263,3195.8331 4128.0573,3195.8057 4128.0871,3195.7771 4128.1157,3195.7473 4128.1431,3195.7163 4128.1691,3195.6842 4128.1938,3195.6511 4128.2172,3195.6169 4128.2391,3195.5819 4128.2595,3195.5459 4128.2784,3195.5092 4128.2958,3195.4717 4128.3116,3195.4335 4128.3258,3195.3947 4128.3384,3195.3553 4128.3494,3195.3155 4128.3587,3195.2752 4128.3664,3195.2346 4128.3723,3195.1937 4128.3766,3195.1526 4128.3791,3195.1113 4128.38,3195.07 4128.38,3186.41 4128.3791,3186.3687 4128.3766,3186.3274 4128.3723,3186.2863 4128.3664,3186.2454 4128.3587,3186.2048 4128.3494,3186.1645 4128.3384,3186.1247 4128.3258,3186.0853 4128.3116,3186.0465 4128.2958,3186.0083 4128.2784,3185.9708 4128.2595,3185.9341 4128.2391,3185.8981 4128.2172,3185.8631 4128.1938,3185.8289 4128.1691,3185.7958 4128.1431,3185.7637 4128.1157,3185.7327 4128.0871,3185.7029 4128.0573,3185.6743 4128.0263,3185.6469 4127.9942,3185.6209 4127.9611,3185.5962 4127.9269,3185.5728 4127.8919,3185.5509 4127.8559,3185.5305 4127.8192,3185.5116 4127.7817,3185.4942 4127.7435,3185.4784 4127.7047,3185.4642 4127.6653,3185.4516 4127.6255,3185.4406 4127.5852,3185.4313 4127.5446,3185.4236 4127.5037,3185.4177 4127.4626,3185.4134 4127.4213,3185.4109 4127.38,3185.41 4124.62,3185.41 4124.5787,3185.4109 4124.5374,3185.4134 4124.4963,3185.4177 4124.4554,3185.4236 4124.4148,3185.4313 4124.3745,3185.4406 4124.3347,3185.4516 4124.2953,3185.4642 4124.2565,3185.4784 4124.2183,3185.4942 4124.1808,3185.5116 4124.1441,3185.5305 4124.1081,3185.5509 4124.0731,3185.5728 4124.0389,3185.5962 4124.0058,3185.6209 4123.9737,3185.6469 4123.9427,3185.6743 4123.9129,3185.7029 4123.8843,3185.7327 4123.8569,3185.7637 4123.8309,3185.7958 4123.8062,3185.8289 4123.7828,3185.8631 4123.7609,3185.8981 4123.7405,3185.9341 4123.7216,3185.9708 4123.7042,3186.0083 4123.6884,3186.0465 4123.6742,3186.0853 4123.6616,3186.1247 4123.6506,3186.1645 4123.6413,3186.2048 4123.6336,3186.2454 4123.6277,3186.2863 4123.6234,3186.3274 4123.6209,3186.3687 4123.62,3186.41 4123.62,3195.07 4123.6209,3195.1113 4123.6234,3195.1526 4123.6277,3195.1937 4123.6336,3195.2346 4123.6413,3195.2752 4123.6506,3195.3155 4123.6616,3195.3553 4123.6742,3195.3947 4123.6884,3195.4335 4123.7042,3195.4717 4123.7216,3195.5092 4123.7405,3195.5459 4123.7609,3195.5819 4123.7828,3195.6169 4123.8062,3195.6511 4123.8309,3195.6842 4123.8569,3195.7163 4123.8843,3195.7473 4123.9129,3195.7771 4123.9427,3195.8057 4123.9737,3195.8331 4124.0058,3195.8591 4124.0389,3195.8838 4124.0731,3195.9072 4124.1081,3195.9291 4124.1441,3195.9495 4124.1808,3195.9684 4124.2183,3195.9858 4124.2565,3196.0016 4124.2953,3196.0158 4124.3347,3196.0284 4124.3745,3196.0394 4124.4148,3196.0487 4124.4554,3196.0564 4124.4963,3196.0623 4124.5374,3196.0666 4124.5787,3196.0691zM4119.62,3217.33 4122.38,3217.33 4122.4213,3217.3291 4122.4626,3217.3266 4122.5037,3217.3223 4122.5446,3217.3164 4122.5852,3217.3087 4122.6255,3217.2994 4122.6653,3217.2884 4122.7047,3217.2758 4122.7435,3217.2616 4122.7817,3217.2458 4122.8192,3217.2284 4122.8559,3217.2095 4122.8919,3217.1891 4122.9269,3217.1672 4122.9611,3217.1438 4122.9942,3217.1191 4123.0263,3217.0931 4123.0573,3217.0657 4123.0871,3217.0371 4123.1157,3217.0073 4123.1431,3216.9763 4123.1691,3216.9442 4123.1938,3216.9111 4123.2172,3216.8769 4123.2391,3216.8419 4123.2595,3216.8059 4123.2784,3216.7692 4123.2958,3216.7317 4123.3116,3216.6935 4123.3258,3216.6547 4123.3384,3216.6153 4123.3494,3216.5755 4123.3587,3216.5352 4123.3664,3216.4946 4123.3723,3216.4537 4123.3766,3216.4126 4123.3791,3216.3713 4123.38,3216.33 4123.38,3207.67 4123.3791,3207.6287 4123.3766,3207.5874 4123.3723,3207.5463 4123.3664,3207.5054 4123.3587,3207.4648 4123.3494,3207.4245 4123.3384,3207.3847 4123.3258,3207.3453 4123.3116,3207.3065 4123.2958,3207.2683 4123.2784,3207.2308 4123.2595,3207.1941 4123.2391,3207.1581 4123.2172,3207.1231 4123.1938,3207.0889 4123.1691,3207.0558 4123.1431,3207.0237 4123.1157,3206.9927 4123.0871,3206.9629 4123.0573,3206.9343 4123.0263,3206.9069 4122.9942,3206.8809 4122.9611,3206.8562 4122.9269,3206.8328 4122.8919,3206.8109 4122.8559,3206.7905 4122.8192,3206.7716 4122.7817,3206.7542 4122.7435,3206.7384 4122.7047,3206.7242 4122.6653,3206.7116 4122.6255,3206.7006 4122.5852,3206.6913 4122.5446,3206.6836 4122.5037,3206.6777 4122.4626,3206.6734 4122.4213,3206.6709 4122.38,3206.67 4119.62,3206.67 4119.5787,3206.6709 4119.5374,3206.6734 4119.4963,3206.6777 4119.4554,3206.6836 4119.4148,3206.6913 4119.3745,3206.7006 4119.3347,3206.7116 4119.2953,3206.7242 4119.2565,3206.7384 4119.2183,3206.7542 4119.1808,3206.7716 4119.1441,3206.7905 4119.1081,3206.8109 4119.0731,3206.8328 4119.0389,3206.8562 4119.0058,3206.8809 4118.9737,3206.9069 4118.9427,3206.9343 4118.9129,3206.9629 4118.8843,3206.9927 4118.8569,3207.0237 4118.8309,3207.0558 4118.8062,3207.0889 4118.7828,3207.1231 4118.7609,3207.1581 4118.7405,3207.1941 4118.7216,3207.2308 4118.7042,3207.2683 4118.6884,3207.3065 4118.6742,3207.3453 4118.6616,3207.3847 4118.6506,3207.4245 4118.6413,3207.4648 4118.6336,3207.5054 4118.6277,3207.5463 4118.6234,3207.5874 4118.6209,3207.6287 4118.62,3207.67 4118.62,3216.33 4118.6209,3216.3713 4118.6234,3216.4126 4118.6277,3216.4537 4118.6336,3216.4946 4118.6413,3216.5352 4118.6506,3216.5755 4118.6616,3216.6153 4118.6742,3216.6547 4118.6884,3216.6935 4118.7042,3216.7317 4118.7216,3216.7692 4118.7405,3216.8059 4118.7609,3216.8419 4118.7828,3216.8769 4118.8062,3216.9111 4118.8309,3216.9442 4118.8569,3216.9763 4118.8843,3217.0073 4118.9129,3217.0371 4118.9427,3217.0657 4118.9737,3217.0931 4119.0058,3217.1191 4119.0389,3217.1438 4119.0731,3217.1672 4119.1081,3217.1891 4119.1441,3217.2095 4119.1808,3217.2284 4119.2183,3217.2458 4119.2565,3217.2616 4119.2953,3217.2758 4119.3347,3217.2884 4119.3745,3217.2994 4119.4148,3217.3087 4119.4554,3217.3164 4119.4963,3217.3223 4119.5374,3217.3266 4119.5787,3217.3291zM4126.69,3217.33 4127.38,3217.33 4127.4213,3217.3291 4127.4626,3217.3266 4127.5037,3217.3223 4127.5446,3217.3164 4127.5852,3217.3087 4127.6255,3217.2994 4127.6653,3217.2884 4127.7047,3217.2758 4127.7435,3217.2616 4127.7817,3217.2458 4127.8192,3217.2284 4127.8559,3217.2095 4127.8919,3217.1891 4127.9269,3217.1672 4127.9611,3217.1438 4127.9942,3217.1191 4128.0263,3217.0931 4128.0573,3217.0657 4128.0871,3217.0371 4128.1157,3217.0073 4128.1431,3216.9763 4128.1691,3216.9442 4128.1938,3216.9111 4128.2172,3216.8769 4128.2391,3216.8419 4128.2595,3216.8059 4128.2784,3216.7692 4128.2958,3216.7317 4128.3116,3216.6935 4128.3258,3216.6547 4128.3384,3216.6153 4128.3494,3216.5755 4128.3587,3216.5352 4128.3664,3216.4946 4128.3723,3216.4537 4128.3766,3216.4126 4128.3791,3216.3713 4128.38,3216.33 4128.38,3214.165 4126.69,3214.165zM4124.62,3217.33 4125.31,3217.33 4125.31,3214.165 4123.62,3214.165 4123.62,3216.33 4123.6209,3216.3713 4123.6234,3216.4126 4123.6277,3216.4537 4123.6336,3216.4946 4123.6413,3216.5352 4123.6506,3216.5755 4123.6616,3216.6153 4123.6742,3216.6547 4123.6884,3216.6935 4123.7042,3216.7317 4123.7216,3216.7692 4123.7405,3216.8059 4123.7609,3216.8419 4123.7828,3216.8769 4123.8062,3216.9111 4123.8309,3216.9442 4123.8569,3216.9763 4123.8843,3217.0073 4123.9129,3217.0371 4123.9427,3217.0657 4123.9737,3217.0931 4124.0058,3217.1191 4124.0389,3217.1438 4124.0731,3217.1672 4124.1081,3217.1891 4124.1441,3217.2095 4124.1808,3217.2284 4124.2183,3217.2458 4124.2565,3217.2616 4124.2953,3217.2758 4124.3347,3217.2884 4124.3745,3217.2994 4124.4148,3217.3087 4124.4554,3217.3164 4124.4963,3217.3223 4124.5374,3217.3266 4124.5787,3217.3291zM4163.654,3215.346 4170.346,3215.346 4170.3873,3215.3451 4170.4286,3215.3426 4170.4697,3215.3383 4170.5106,3215.3324 4170.5512,3215.3247 4170.5915,3215.3154 4170.6313,3215.3044 4170.6707,3215.2918 4170.7095,3215.2776 4170.7477,3215.2618 4170.7852,3215.2444 4170.8219,3215.2255 4170.8579,3215.2051 4170.8929,3215.1832 4170.9271,3215.1598 4170.9602,3215.1351 4170.9923,3215.1091 4171.0233,3215.0817 4171.0531,3215.0531 4171.0817,3215.0233 4171.1091,3214.9923 4171.1351,3214.9602 4171.1598,3214.9271 4171.1832,3214.8929 4171.2051,3214.8579 4171.2255,3214.8219 4171.2444,3214.7852 4171.2618,3214.7477 4171.2776,3214.7095 4171.2918,3214.6707 4171.3044,3214.6313 4171.3154,3214.5915 4171.3247,3214.5512 4171.3324,3214.5106 4171.3383,3214.4697 4171.3426,3214.4286 4171.3451,3214.3873 4171.346,3214.346 4171.346,3207.654 4171.3451,3207.6127 4171.3426,3207.5714 4171.3383,3207.5303 4171.3324,3207.4894 4171.3247,3207.4488 4171.3154,3207.4085 4171.3044,3207.3687 4171.2918,3207.3293 4171.2776,3207.2905 4171.2618,3207.2523 4171.2444,3207.2148 4171.2255,3207.1781 4171.2051,3207.1421 4171.1832,3207.1071 4171.1598,3207.0729 4171.1351,3207.0398 4171.1091,3207.0077 4171.0817,3206.9767 4171.0531,3206.9469 4171.0233,3206.9183 4170.9923,3206.8909 4170.9602,3206.8649 4170.9271,3206.8402 4170.8929,3206.8168 4170.8579,3206.7949 4170.8219,3206.7745 4170.7852,3206.7556 4170.7477,3206.7382 4170.7095,3206.7224 4170.6707,3206.7082 4170.6313,3206.6956 4170.5915,3206.6846 4170.5512,3206.6753 4170.5106,3206.6676 4170.4697,3206.6617 4170.4286,3206.6574 4170.3873,3206.6549 4170.346,3206.654 4163.654,3206.654 4163.6127,3206.6549 4163.5714,3206.6574 4163.5303,3206.6617 4163.4894,3206.6676 4163.4488,3206.6753 4163.4085,3206.6846 4163.3687,3206.6956 4163.3293,3206.7082 4163.2905,3206.7224 4163.2523,3206.7382 4163.2148,3206.7556 4163.1781,3206.7745 4163.1421,3206.7949 4163.1071,3206.8168 4163.0729,3206.8402 4163.0398,3206.8649 4163.0077,3206.8909 4162.9767,3206.9183 4162.9469,3206.9469 4162.9183,3206.9767 4162.8909,3207.0077 4162.8649,3207.0398 4162.8402,3207.0729 4162.8168,3207.1071 4162.7949,3207.1421 4162.7745,3207.1781 4162.7556,3207.2148 4162.7382,3207.2523 4162.7224,3207.2905 4162.7082,3207.3293 4162.6956,3207.3687 4162.6846,3207.4085 4162.6753,3207.4488 4162.6676,3207.4894 4162.6617,3207.5303 4162.6574,3207.5714 4162.6549,3207.6127 4162.654,3207.654 4162.654,3214.346 4162.6549,3214.3873 4162.6574,3214.4286 4162.6617,3214.4697 4162.6676,3214.5106 4162.6753,3214.5512 4162.6846,3214.5915 4162.6956,3214.6313 4162.7082,3214.6707 4162.7224,3214.7095 4162.7382,3214.7477 4162.7556,3214.7852 4162.7745,3214.8219 4162.7949,3214.8579 4162.8168,3214.8929 4162.8402,3214.9271 4162.8649,3214.9602 4162.8909,3214.9923 4162.9183,3215.0233 4162.9469,3215.0531 4162.9767,3215.0817 4163.0077,3215.1091 4163.0398,3215.1351 4163.0729,3215.1598 4163.1071,3215.1832 4163.1421,3215.2051 4163.1781,3215.2255 4163.2148,3215.2444 4163.2523,3215.2618 4163.2905,3215.2776 4163.3293,3215.2918 4163.3687,3215.3044 4163.4085,3215.3154 4163.4488,3215.3247 4163.4894,3215.3324 4163.5303,3215.3383 4163.5714,3215.3426 4163.6127,3215.3451zM4196.8916,3215.3451 4197.3248,3215.3343 4197.7548,3215.2805 4198.1772,3215.184 4198.588,3215.046 4198.9829,3214.8678 4199.3582,3214.6512 4199.71,3214.3982 4200.0349,3214.1115 4200.3296,3213.7939 4200.5912,3213.4485 4200.8172,3213.0787 4201.0052,3212.6883 4201.1534,3212.2812 4201.2603,3211.8612 4201.3249,3211.4328 4201.3465,3211 4201.3249,3210.5672 4201.2603,3210.1388 4201.1534,3209.7188 4201.0052,3209.3117 4200.8172,3208.9213 4200.5912,3208.5515 4200.3296,3208.2061 4200.0349,3207.8885 4199.71,3207.6018 4199.3582,3207.3488 4198.9829,3207.1322 4198.588,3206.954 4198.1772,3206.816 4197.7548,3206.7195 4197.3248,3206.6657 4196.8916,3206.6549 4196.4595,3206.6872 4196.0328,3206.7625 4195.6157,3206.8798 4195.2123,3207.0381 4194.8267,3207.2358 4194.4628,3207.4709 4194.124,3207.7411 4193.8138,3208.0436 4193.5353,3208.3756 4193.2912,3208.7336 4193.0839,3209.1141 4192.9156,3209.5134 4192.7879,3209.9275 4192.702,3210.3522 4192.6589,3210.7833 4192.6589,3211.2167 4192.702,3211.6478 4192.7879,3212.0725 4192.9156,3212.4866 4193.0839,3212.8859 4193.2912,3213.2664 4193.5353,3213.6244 4193.8138,3213.9564 4194.124,3214.2589 4194.4628,3214.5291 4194.8268,3214.7642 4195.2123,3214.9619 4195.6157,3215.1202 4196.0328,3215.2375 4196.4595,3215.3128zM4186.8916,3215.3451 4187.3248,3215.3343 4187.7548,3215.2805 4188.1772,3215.184 4188.588,3215.046 4188.9829,3214.8678 4189.3582,3214.6512 4189.71,3214.3982 4190.0349,3214.1115 4190.3296,3213.7939 4190.5912,3213.4485 4190.8172,3213.0787 4191.0052,3212.6883 4191.1534,3212.2812 4191.2603,3211.8612 4191.3249,3211.4328 4191.3465,3211 4191.3249,3210.5672 4191.2603,3210.1388 4191.1534,3209.7188 4191.0052,3209.3117 4190.8172,3208.9213 4190.5912,3208.5515 4190.3296,3208.2061 4190.0349,3207.8885 4189.71,3207.6018 4189.3582,3207.3488 4188.9829,3207.1322 4188.588,3206.954 4188.1772,3206.816 4187.7548,3206.7195 4187.3248,3206.6657 4186.8916,3206.6549 4186.4595,3206.6872 4186.0328,3206.7625 4185.6157,3206.8798 4185.2123,3207.0381 4184.8267,3207.2358 4184.4628,3207.4709 4184.124,3207.7411 4183.8138,3208.0436 4183.5353,3208.3756 4183.2912,3208.7336 4183.0839,3209.1141 4182.9156,3209.5134 4182.7879,3209.9275 4182.702,3210.3522 4182.6589,3210.7833 4182.6589,3211.2167 4182.702,3211.6478 4182.7879,3212.0725 4182.9156,3212.4866 4183.0839,3212.8859 4183.2912,3213.2664 4183.5353,3213.6244 4183.8138,3213.9564 4184.124,3214.2589 4184.4628,3214.5291 4184.8268,3214.7642 4185.2123,3214.9619 4185.6157,3215.1202 4186.0328,3215.2375 4186.4595,3215.3128zM4178.6732,3215.0076 4178.9829,3214.8678 4179.3582,3214.6512 4179.71,3214.3982 4180.0349,3214.1115 4180.3296,3213.7939 4180.5912,3213.4485 4180.8172,3213.0787 4181.0052,3212.6883 4181.0107,3212.6732 4178.6732,3212.6732zM4175.3268,3215.0068 4175.3268,3212.6732 4172.9942,3212.6732 4173.0839,3212.8859 4173.2912,3213.2664 4173.5353,3213.6244 4173.8138,3213.9564 4174.124,3214.2589 4174.4628,3214.5291 4174.8268,3214.7642 4175.2123,3214.9619zM4062.2441,3214.7559 4067.7559,3214.7559 4067.7972,3214.755 4067.8385,3214.7525 4067.8796,3214.7482 4067.9205,3214.7423 4067.9611,3214.7346 4068.0014,3214.7253 4068.0412,3214.7143 4068.0806,3214.7017 4068.1194,3214.6875 4068.1576,3214.6717 4068.1951,3214.6543 4068.2318,3214.6354 4068.2678,3214.615 4068.3028,3214.5931 4068.337,3214.5697 4068.3701,3214.545 4068.4022,3214.519 4068.4332,3214.4916 4068.463,3214.463 4068.4916,3214.4332 4068.519,3214.4022 4068.545,3214.3701 4068.5697,3214.337 4068.5931,3214.3028 4068.615,3214.2678 4068.6354,3214.2318 4068.6543,3214.1951 4068.6717,3214.1576 4068.6875,3214.1194 4068.7017,3214.0806 4068.7143,3214.0412 4068.7253,3214.0014 4068.7346,3213.9611 4068.7423,3213.9205 4068.7482,3213.8796 4068.7525,3213.8385 4068.755,3213.7972 4068.7559,3213.7559 4068.7559,3208.2441 4068.755,3208.2028 4068.7525,3208.1615 4068.7482,3208.1204 4068.7423,3208.0795 4068.7346,3208.0389 4068.7253,3207.9986 4068.7143,3207.9588 4068.7017,3207.9194 4068.6875,3207.8806 4068.6717,3207.8424 4068.6543,3207.8049 4068.6354,3207.7682 4068.615,3207.7322 4068.5931,3207.6972 4068.5697,3207.663 4068.545,3207.6299 4068.519,3207.5978 4068.4916,3207.5668 4068.463,3207.537 4068.4332,3207.5084 4068.4022,3207.481 4068.3701,3207.455 4068.337,3207.4303 4068.3028,3207.4069 4068.2678,3207.385 4068.2318,3207.3646 4068.1951,3207.3457 4068.1576,3207.3283 4068.1194,3207.3125 4068.0806,3207.2983 4068.0412,3207.2857 4068.0014,3207.2747 4067.9611,3207.2654 4067.9205,3207.2577 4067.8796,3207.2518 4067.8385,3207.2475 4067.7972,3207.245 4067.7559,3207.2441 4062.2441,3207.2441 4062.2028,3207.245 4062.1615,3207.2475 4062.1204,3207.2518 4062.0795,3207.2577 4062.0389,3207.2654 4061.9986,3207.2747 4061.9588,3207.2857 4061.9194,3207.2983 4061.8806,3207.3125 4061.8424,3207.3283 4061.8049,3207.3457 4061.7682,3207.3646 4061.7322,3207.385 4061.6972,3207.4069 4061.663,3207.4303 4061.6299,3207.455 4061.5978,3207.481 4061.5668,3207.5084 4061.537,3207.537 4061.5084,3207.5668 4061.481,3207.5978 4061.455,3207.6299 4061.4303,3207.663 4061.4069,3207.6972 4061.385,3207.7322 4061.3646,3207.7682 4061.3457,3207.8049 4061.3283,3207.8424 4061.3125,3207.8806 4061.2983,3207.9194 4061.2857,3207.9588 4061.2747,3207.9986 4061.2654,3208.0389 4061.2577,3208.0795 4061.2518,3208.1204 4061.2475,3208.1615 4061.245,3208.2028 4061.2441,3208.2441 4061.2441,3213.7559 4061.245,3213.7972 4061.2475,3213.8385 4061.2518,3213.8796 4061.2577,3213.9205 4061.2654,3213.9611 4061.2747,3214.0014 4061.2857,3214.0412 4061.2983,3214.0806 4061.3125,3214.1194 4061.3283,3214.1576 4061.3457,3214.1951 4061.3646,3214.2318 4061.385,3214.2678 4061.4069,3214.3028 4061.4303,3214.337 4061.455,3214.3701 4061.481,3214.4022 4061.5084,3214.4332 4061.537,3214.463 4061.5668,3214.4916 4061.5978,3214.519 4061.6299,3214.545 4061.663,3214.5697 4061.6972,3214.5931 4061.7322,3214.615 4061.7682,3214.6354 4061.8049,3214.6543 4061.8424,3214.6717 4061.8806,3214.6875 4061.9194,3214.7017 4061.9588,3214.7143 4061.9986,3214.7253 4062.0389,3214.7346 4062.0795,3214.7423 4062.1204,3214.7482 4062.1615,3214.7525 4062.2028,3214.755zM4074.252,3214.4937 4074.5875,3214.3423 4074.9117,3214.1551 4075.2158,3213.9365 4075.4965,3213.6887 4075.7512,3213.4142 4075.9773,3213.1158 4076.1725,3212.7963 4076.335,3212.4589 4076.3644,3212.378 4074.252,3212.378zM4071.496,3214.489 4071.496,3212.378 4069.384,3212.378 4069.4901,3212.6296 4069.6691,3212.9585 4069.8801,3213.2678 4070.1207,3213.5547 4070.3888,3213.8161 4070.6815,3214.0496 4070.9961,3214.2527 4071.3292,3214.4235zM4117,3220.5905 4130,3220.5905 4130.0543,3220.5896 4130.1085,3220.5868 4130.1627,3220.5822 4130.2166,3220.5757 4130.2702,3220.5674 4130.3236,3220.5572 4130.3766,3220.5453 4130.4291,3220.5315 4130.4811,3220.516 4130.5326,3220.4987 4130.5835,3220.4796 4130.6337,3220.4588 4130.6831,3220.4363 4130.7317,3220.4122 4130.7795,3220.3864 4130.8264,3220.359 4130.8723,3220.3299 4130.9172,3220.2994 4130.961,3220.2673 4131.0037,3220.2338 4131.0453,3220.1988 4131.0856,3220.1624 4131.1247,3220.1247 4132.1247,3219.1247 4132.1624,3219.0856 4132.1988,3219.0453 4132.2338,3219.0037 4132.2673,3218.961 4132.2994,3218.9172 4132.3299,3218.8723 4132.359,3218.8264 4132.3864,3218.7795 4132.4122,3218.7317 4132.4363,3218.6831 4132.4588,3218.6337 4132.4796,3218.5835 4132.4987,3218.5326 4132.516,3218.4811 4132.5315,3218.4291 4132.5453,3218.3766 4132.5572,3218.3236 4132.5674,3218.2702 4132.5757,3218.2166 4132.5822,3218.1627 4132.5868,3218.1085 4132.5896,3218.0543 4132.5905,3218 4132.5905,3217.3075 4132.6255,3217.2994 4132.6653,3217.2884 4132.7047,3217.2758 4132.7435,3217.2616 4132.7817,3217.2458 4132.8192,3217.2284 4132.8559,3217.2095 4132.8919,3217.1891 4132.9269,3217.1672 4132.9611,3217.1438 4132.9942,3217.1191 4133.0263,3217.0931 4133.0573,3217.0657 4133.0871,3217.0371 4133.1157,3217.0073 4133.1431,3216.9763 4133.1691,3216.9442 4133.1938,3216.9111 4133.2172,3216.8769 4133.2391,3216.8419 4133.2595,3216.8059 4133.2784,3216.7692 4133.2958,3216.7317 4133.3116,3216.6935 4133.3258,3216.6547 4133.3384,3216.6153 4133.3494,3216.5755 4133.3587,3216.5352 4133.3664,3216.4946 4133.3723,3216.4537 4133.3766,3216.4126 4133.3791,3216.3713 4133.38,3216.33 4133.38,3207.67 4133.3791,3207.6287 4133.3766,3207.5874 4133.3723,3207.5463 4133.3664,3207.5054 4133.3587,3207.4648 4133.3494,3207.4245 4133.3384,3207.3847 4133.3258,3207.3453 4133.3116,3207.3065 4133.2958,3207.2683 4133.2784,3207.2308 4133.2595,3207.1941 4133.2391,3207.1581 4133.2172,3207.1231 4133.1938,3207.0889 4133.1691,3207.0558 4133.1431,3207.0237 4133.1157,3206.9927 4133.0871,3206.9629 4133.0573,3206.9343 4133.0263,3206.9069 4132.9942,3206.8809 4132.9611,3206.8562 4132.9269,3206.8328 4132.8919,3206.8109 4132.8559,3206.7905 4132.8192,3206.7716 4132.7817,3206.7542 4132.7435,3206.7384 4132.7047,3206.7242 4132.6653,3206.7116 4132.6255,3206.7006 4132.5852,3206.6913 4132.5446,3206.6836 4132.5037,3206.6777 4132.4626,3206.6734 4132.4213,3206.6709 4132.38,3206.67 4129.62,3206.67 4129.5787,3206.6709 4129.5374,3206.6734 4129.4963,3206.6777 4129.4554,3206.6836 4129.4148,3206.6913 4129.3745,3206.7006 4129.3347,3206.7116 4129.2953,3206.7242 4129.2565,3206.7384 4129.2183,3206.7542 4129.1808,3206.7716 4129.1441,3206.7905 4129.1081,3206.8109 4129.0731,3206.8328 4129.0389,3206.8562 4129.0058,3206.8809 4128.9737,3206.9069 4128.9427,3206.9343 4128.9129,3206.9629 4128.8843,3206.9927 4128.8569,3207.0237 4128.8309,3207.0558 4128.8062,3207.0889 4128.7828,3207.1231 4128.7609,3207.1581 4128.7405,3207.1941 4128.7216,3207.2308 4128.7042,3207.2683 4128.6884,3207.3065 4128.6742,3207.3453 4128.6616,3207.3847 4128.6506,3207.4245 4128.6413,3207.4648 4128.6336,3207.5054 4128.6277,3207.5463 4128.6234,3207.5874 4128.6209,3207.6287 4128.62,3207.67 4128.62,3216.33 4128.6209,3216.3713 4128.6234,3216.4126 4128.6277,3216.4537 4128.6336,3216.4946 4128.6413,3216.5352 4128.6506,3216.5755 4128.6616,3216.6153 4128.6742,3216.6547 4128.6884,3216.6935 4128.7042,3216.7317 4128.7216,3216.7692 4128.7405,3216.8059 4128.7609,3216.8419 4128.7828,3216.8769 4128.8062,3216.9111 4128.8309,3216.9442 4128.8569,3216.9763 4128.8843,3217.0073 4128.9129,3217.0371 4128.9427,3217.0657 4128.9737,3217.0931 4129.0058,3217.1191 4129.0389,3217.1438 4129.0731,3217.1672 4129.1081,3217.1891 4129.1441,3217.2095 4129.1808,3217.2284 4129.2183,3217.2458 4129.2565,3217.2616 4129.2953,3217.2758 4129.3347,3217.2884 4129.3745,3217.2994 4129.4095,3217.3075 4129.4095,3217.3411 4129.3411,3217.4095 4117.6589,3217.4095 4116.5905,3216.3411 4116.5905,3207 4116.5896,3206.9457 4116.5868,3206.8915 4116.5822,3206.8373 4116.5757,3206.7834 4116.5674,3206.7298 4116.5572,3206.6764 4116.5453,3206.6234 4116.5315,3206.5709 4116.516,3206.5189 4116.4987,3206.4674 4116.4796,3206.4165 4116.4588,3206.3663 4116.4363,3206.3169 4116.4122,3206.2683 4116.3864,3206.2205 4116.359,3206.1736 4116.3299,3206.1277 4116.2994,3206.0828 4116.2673,3206.039 4116.2338,3205.9963 4116.1988,3205.9547 4116.1624,3205.9144 4116.1247,3205.8753 4111.5915,3201.3421 4111.5915,3191.284 4112.894,3191.284 4112.9353,3191.2831 4112.9766,3191.2806 4113.0177,3191.2763 4113.0586,3191.2704 4113.0992,3191.2627 4113.1395,3191.2534 4113.1793,3191.2424 4113.2187,3191.2298 4113.2575,3191.2156 4113.2957,3191.1998 4113.3332,3191.1824 4113.3699,3191.1635 4113.4059,3191.1431 4113.4409,3191.1212 4113.4751,3191.0978 4113.5082,3191.0731 4113.5403,3191.0471 4113.5713,3191.0197 4113.6011,3190.9911 4113.6297,3190.9613 4113.6571,3190.9303 4113.6831,3190.8982 4113.7078,3190.8651 4113.7312,3190.8309 4113.7531,3190.7959 4113.7735,3190.7599 4113.7924,3190.7232 4113.8098,3190.6857 4113.8256,3190.6475 4113.8398,3190.6087 4113.8524,3190.5693 4113.8634,3190.5295 4113.8727,3190.4892 4113.8804,3190.4486 4113.8863,3190.4077 4113.8906,3190.3666 4113.8931,3190.3253 4113.894,3190.284 4113.894,3185.717 4113.8931,3185.6757 4113.8906,3185.6344 4113.8863,3185.5933 4113.8804,3185.5524 4113.8727,3185.5118 4113.8634,3185.4715 4113.8524,3185.4317 4113.8398,3185.3923 4113.8256,3185.3535 4113.8098,3185.3153 4113.7924,3185.2778 4113.7735,3185.2411 4113.7531,3185.2051 4113.7312,3185.1701 4113.7078,3185.1359 4113.6831,3185.1028 4113.6571,3185.0707 4113.6297,3185.0397 4113.6011,3185.0099 4113.5713,3184.9813 4113.5403,3184.9539 4113.5082,3184.9279 4113.4751,3184.9032 4113.4409,3184.8798 4113.4059,3184.8579 4113.3699,3184.8375 4113.3332,3184.8186 4113.2957,3184.8012 4113.2575,3184.7854 4113.2187,3184.7712 4113.1793,3184.7586 4113.1395,3184.7476 4113.0992,3184.7383 4113.0586,3184.7306 4113.0177,3184.7247 4112.9766,3184.7204 4112.9353,3184.7179 4112.894,3184.717 4107.107,3184.717 4107.0657,3184.7179 4107.0244,3184.7204 4106.9833,3184.7247 4106.9424,3184.7306 4106.9018,3184.7383 4106.8615,3184.7476 4106.8217,3184.7586 4106.7823,3184.7712 4106.7435,3184.7854 4106.7053,3184.8012 4106.6678,3184.8186 4106.6311,3184.8375 4106.5951,3184.8579 4106.5601,3184.8798 4106.5259,3184.9032 4106.4928,3184.9279 4106.4607,3184.9539 4106.4297,3184.9813 4106.3999,3185.0099 4106.3713,3185.0397 4106.3439,3185.0707 4106.3179,3185.1028 4106.2932,3185.1359 4106.2698,3185.1701 4106.2479,3185.2051 4106.2275,3185.2411 4106.2086,3185.2778 4106.1912,3185.3153 4106.1754,3185.3535 4106.1612,3185.3923 4106.1486,3185.4317 4106.1376,3185.4715 4106.1283,3185.5118 4106.1206,3185.5524 4106.1147,3185.5933 4106.1104,3185.6344 4106.1079,3185.6757 4106.107,3185.717 4106.107,3190.284 4106.1079,3190.3253 4106.1104,3190.3666 4106.1147,3190.4077 4106.1206,3190.4486 4106.1283,3190.4892 4106.1376,3190.5295 4106.1486,3190.5693 4106.1612,3190.6087 4106.1754,3190.6475 4106.1912,3190.6857 4106.2086,3190.7232 4106.2275,3190.7599 4106.2479,3190.7959 4106.2698,3190.8309 4106.2932,3190.8651 4106.3179,3190.8982 4106.3439,3190.9303 4106.3713,3190.9613 4106.3999,3190.9911 4106.4297,3191.0197 4106.4607,3191.0471 4106.4928,3191.0731 4106.5259,3191.0978 4106.5601,3191.1212 4106.5951,3191.1431 4106.6311,3191.1635 4106.6678,3191.1824 4106.7053,3191.1998 4106.7435,3191.2156 4106.7823,3191.2298 4106.8217,3191.2424 4106.8615,3191.2534 4106.9018,3191.2627 4106.9424,3191.2704 4106.9833,3191.2763 4107.0244,3191.2806 4107.0657,3191.2831 4107.107,3191.284 4108.4105,3191.284 4108.4105,3202.001 4108.4114,3202.0553 4108.4142,3202.1095 4108.4188,3202.1637 4108.4253,3202.2176 4108.4336,3202.2712 4108.4438,3202.3246 4108.4557,3202.3776 4108.4695,3202.4301 4108.485,3202.4821 4108.5023,3202.5336 4108.5214,3202.5845 4108.5422,3202.6347 4108.5647,3202.6841 4108.5888,3202.7327 4108.6146,3202.7805 4108.642,3202.8274 4108.6711,3202.8733 4108.7016,3202.9182 4108.7337,3202.962 4108.7672,3203.0047 4108.8022,3203.0463 4108.8386,3203.0866 4108.8763,3203.1257 4113.4095,3207.6589 4113.4095,3217 4113.4104,3217.0543 4113.4132,3217.1085 4113.4178,3217.1627 4113.4243,3217.2166 4113.4326,3217.2702 4113.4428,3217.3236 4113.4547,3217.3766 4113.4685,3217.4291 4113.484,3217.4811 4113.5013,3217.5326 4113.5204,3217.5835 4113.5412,3217.6337 4113.5637,3217.6831 4113.5878,3217.7317 4113.6136,3217.7795 4113.641,3217.8264 4113.6701,3217.8723 4113.7006,3217.9172 4113.7327,3217.961 4113.7662,3218.0037 4113.8012,3218.0453 4113.8376,3218.0856 4113.8753,3218.1247 4115.8753,3220.1247 4115.9144,3220.1624 4115.9547,3220.1988 4115.9963,3220.2338 4116.039,3220.2673 4116.0828,3220.2994 4116.1277,3220.3299 4116.1736,3220.359 4116.2205,3220.3864 4116.2683,3220.4122 4116.3169,3220.4363 4116.3663,3220.4588 4116.4165,3220.4796 4116.4674,3220.4987 4116.5189,3220.516 4116.5709,3220.5315 4116.6234,3220.5453 4116.6764,3220.5572 4116.7298,3220.5674 4116.7834,3220.5757 4116.8373,3220.5822 4116.8915,3220.5868 4116.9457,3220.5896zM4123.62,3209.835 4125.31,3209.835 4125.31,3206.67 4124.62,3206.67 4124.5787,3206.6709 4124.5374,3206.6734 4124.4963,3206.6777 4124.4554,3206.6836 4124.4148,3206.6913 4124.3745,3206.7006 4124.3347,3206.7116 4124.2953,3206.7242 4124.2565,3206.7384 4124.2183,3206.7542 4124.1808,3206.7716 4124.1441,3206.7905 4124.1081,3206.8109 4124.0731,3206.8328 4124.0389,3206.8562 4124.0058,3206.8809 4123.9737,3206.9069 4123.9427,3206.9343 4123.9129,3206.9629 4123.8843,3206.9927 4123.8569,3207.0237 4123.8309,3207.0558 4123.8062,3207.0889 4123.7828,3207.1231 4123.7609,3207.1581 4123.7405,3207.1941 4123.7216,3207.2308 4123.7042,3207.2683 4123.6884,3207.3065 4123.6742,3207.3453 4123.6616,3207.3847 4123.6506,3207.4245 4123.6413,3207.4648 4123.6336,3207.5054 4123.6277,3207.5463 4123.6234,3207.5874 4123.6209,3207.6287 4123.62,3207.67zM4074.252,3209.622 4076.3644,3209.622 4076.335,3209.5411 4076.1725,3209.2037 4075.9773,3208.8842 4075.7512,3208.5858 4075.4965,3208.3113 4075.2158,3208.0635 4074.9117,3207.8449 4074.5875,3207.6577 4074.252,3207.5063zM4069.384,3209.622 4071.496,3209.622 4071.496,3207.511 4071.3292,3207.5765 4070.996,3207.7473 4070.6815,3207.9504 4070.3888,3208.1839 4070.1207,3208.4453 4069.8801,3208.7322 4069.6691,3209.0415 4069.4901,3209.3704zM4178.6732,3209.3268 4181.0107,3209.3268 4181.0052,3209.3117 4180.8172,3208.9213 4180.5912,3208.5515 4180.3296,3208.2061 4180.0349,3207.8885 4179.71,3207.6018 4179.3582,3207.3488 4178.9829,3207.1322 4178.6732,3206.9924zM4172.9942,3209.3268 4175.3268,3209.3268 4175.3268,3206.9932 4175.2123,3207.0381 4174.8267,3207.2358 4174.4628,3207.4709 4174.124,3207.7411 4173.8138,3208.0436 4173.5353,3208.3756 4173.2912,3208.7336 4173.0839,3209.1141zM4129.62,3196.07 4132.38,3196.07 4132.4213,3196.0691 4132.4626,3196.0666 4132.5037,3196.0623 4132.5446,3196.0564 4132.5852,3196.0487 4132.6255,3196.0394 4132.6653,3196.0284 4132.7047,3196.0158 4132.7435,3196.0016 4132.7817,3195.9858 4132.8192,3195.9684 4132.8559,3195.9495 4132.8919,3195.9291 4132.9269,3195.9072 4132.9611,3195.8838 4132.9942,3195.8591 4133.0263,3195.8331 4133.0573,3195.8057 4133.0871,3195.7771 4133.1157,3195.7473 4133.1431,3195.7163 4133.1691,3195.6842 4133.1938,3195.6511 4133.2172,3195.6169 4133.2391,3195.5819 4133.2595,3195.5459 4133.2784,3195.5092 4133.2958,3195.4717 4133.3116,3195.4335 4133.3258,3195.3947 4133.3384,3195.3553 4133.3494,3195.3155 4133.3587,3195.2752 4133.3664,3195.2346 4133.3723,3195.1937 4133.3766,3195.1526 4133.3791,3195.1113 4133.38,3195.07 4133.38,3192.3305 4139.258,3192.3305 4139.3123,3192.3296 4139.3665,3192.3268 4139.4207,3192.3222 4139.4746,3192.3157 4139.5282,3192.3074 4139.5816,3192.2972 4139.6346,3192.2853 4139.6871,3192.2715 4139.7391,3192.256 4139.7906,3192.2387 4139.8415,3192.2196 4139.8917,3192.1988 4139.9411,3192.1763 4139.9897,3192.1522 4140.0375,3192.1264 4140.0844,3192.099 4140.1303,3192.0699 4140.1752,3192.0394 4140.219,3192.0073 4140.2617,3191.9738 4140.3033,3191.9388 4140.3436,3191.9024 4140.3827,3191.8647 4140.9644,3191.283 4144.893,3191.283 4144.9343,3191.2821 4144.9756,3191.2796 4145.0167,3191.2753 4145.0576,3191.2694 4145.0982,3191.2617 4145.1385,3191.2524 4145.1783,3191.2414 4145.2177,3191.2288 4145.2565,3191.2146 4145.2947,3191.1988 4145.3322,3191.1814 4145.3689,3191.1625 4145.4049,3191.1421 4145.4399,3191.1202 4145.4741,3191.0968 4145.5072,3191.0721 4145.5393,3191.0461 4145.5703,3191.0187 4145.6001,3190.9901 4145.6287,3190.9603 4145.6561,3190.9293 4145.6821,3190.8972 4145.7068,3190.8641 4145.7302,3190.8299 4145.7521,3190.7949 4145.7725,3190.7589 4145.7914,3190.7222 4145.8088,3190.6847 4145.8246,3190.6465 4145.8388,3190.6077 4145.8514,3190.5683 4145.8624,3190.5285 4145.8717,3190.4882 4145.8794,3190.4476 4145.8853,3190.4067 4145.8896,3190.3656 4145.8921,3190.3243 4145.893,3190.283 4145.893,3185.716 4145.8921,3185.6747 4145.8896,3185.6334 4145.8853,3185.5923 4145.8794,3185.5514 4145.8717,3185.5108 4145.8624,3185.4705 4145.8514,3185.4307 4145.8388,3185.3913 4145.8246,3185.3525 4145.8088,3185.3143 4145.7914,3185.2768 4145.7725,3185.2401 4145.7521,3185.2041 4145.7302,3185.1691 4145.7068,3185.1349 4145.6821,3185.1018 4145.6561,3185.0697 4145.6287,3185.0387 4145.6001,3185.0089 4145.5703,3184.9803 4145.5393,3184.9529 4145.5072,3184.9269 4145.4741,3184.9022 4145.4399,3184.8788 4145.4049,3184.8569 4145.3689,3184.8365 4145.3322,3184.8176 4145.2947,3184.8002 4145.2565,3184.7844 4145.2177,3184.7702 4145.1783,3184.7576 4145.1385,3184.7466 4145.0982,3184.7373 4145.0576,3184.7296 4145.0167,3184.7237 4144.9756,3184.7194 4144.9343,3184.7169 4144.893,3184.716 4139.106,3184.716 4139.0647,3184.7169 4139.0234,3184.7194 4138.9823,3184.7237 4138.9414,3184.7296 4138.9008,3184.7373 4138.8605,3184.7466 4138.8207,3184.7576 4138.7813,3184.7702 4138.7425,3184.7844 4138.7043,3184.8002 4138.6668,3184.8176 4138.6301,3184.8365 4138.5941,3184.8569 4138.5591,3184.8788 4138.5249,3184.9022 4138.4918,3184.9269 4138.4597,3184.9529 4138.4287,3184.9803 4138.3989,3185.0089 4138.3703,3185.0387 4138.3429,3185.0697 4138.3169,3185.1018 4138.2922,3185.1349 4138.2688,3185.1691 4138.2469,3185.2041 4138.2265,3185.2401 4138.2076,3185.2768 4138.1902,3185.3143 4138.1744,3185.3525 4138.1602,3185.3913 4138.1476,3185.4307 4138.1366,3185.4705 4138.1273,3185.5108 4138.1196,3185.5514 4138.1137,3185.5923 4138.1094,3185.6334 4138.1069,3185.6747 4138.106,3185.716 4138.106,3189.1495 4133.38,3189.1495 4133.38,3186.41 4133.3791,3186.3687 4133.3766,3186.3274 4133.3723,3186.2863 4133.3664,3186.2454 4133.3587,3186.2048 4133.3494,3186.1645 4133.3384,3186.1247 4133.3258,3186.0853 4133.3116,3186.0465 4133.2958,3186.0083 4133.2784,3185.9708 4133.2595,3185.9341 4133.2391,3185.8981 4133.2172,3185.8631 4133.1938,3185.8289 4133.1691,3185.7958 4133.1431,3185.7637 4133.1157,3185.7327 4133.0871,3185.7029 4133.0573,3185.6743 4133.0263,3185.6469 4132.9942,3185.6209 4132.9611,3185.5962 4132.9269,3185.5728 4132.8919,3185.5509 4132.8559,3185.5305 4132.8192,3185.5116 4132.7817,3185.4942 4132.7435,3185.4784 4132.7047,3185.4642 4132.6653,3185.4516 4132.6255,3185.4406 4132.5852,3185.4313 4132.5446,3185.4236 4132.5037,3185.4177 4132.4626,3185.4134 4132.4213,3185.4109 4132.38,3185.41 4129.62,3185.41 4129.5787,3185.4109 4129.5374,3185.4134 4129.4963,3185.4177 4129.4554,3185.4236 4129.4148,3185.4313 4129.3745,3185.4406 4129.3347,3185.4516 4129.2953,3185.4642 4129.2565,3185.4784 4129.2183,3185.4942 4129.1808,3185.5116 4129.1441,3185.5305 4129.1081,3185.5509 4129.0731,3185.5728 4129.0389,3185.5962 4129.0058,3185.6209 4128.9737,3185.6469 4128.9427,3185.6743 4128.9129,3185.7029 4128.8843,3185.7327 4128.8569,3185.7637 4128.8309,3185.7958 4128.8062,3185.8289 4128.7828,3185.8631 4128.7609,3185.8981 4128.7405,3185.9341 4128.7216,3185.9708 4128.7042,3186.0083 4128.6884,3186.0465 4128.6742,3186.0853 4128.6616,3186.1247 4128.6506,3186.1645 4128.6413,3186.2048 4128.6336,3186.2454 4128.6277,3186.2863 4128.6234,3186.3274 4128.6209,3186.3687 4128.62,3186.41 4128.62,3195.07 4128.6209,3195.1113 4128.6234,3195.1526 4128.6277,3195.1937 4128.6336,3195.2346 4128.6413,3195.2752 4128.6506,3195.3155 4128.6616,3195.3553 4128.6742,3195.3947 4128.6884,3195.4335 4128.7042,3195.4717 4128.7216,3195.5092 4128.7405,3195.5459 4128.7609,3195.5819 4128.7828,3195.6169 4128.8062,3195.6511 4128.8309,3195.6842 4128.8569,3195.7163 4128.8843,3195.7473 4128.9129,3195.7771 4128.9427,3195.8057 4128.9737,3195.8331 4129.0058,3195.8591 4129.0389,3195.8838 4129.0731,3195.9072 4129.1081,3195.9291 4129.1441,3195.9495 4129.1808,3195.9684 4129.2183,3195.9858 4129.2565,3196.0016 4129.2953,3196.0158 4129.3347,3196.0284 4129.3745,3196.0394 4129.4148,3196.0487 4129.4554,3196.0564 4129.4963,3196.0623 4129.5374,3196.0666 4129.5787,3196.0691z" stroke-width="0" layerid="2"/><polyline points="4111.2 3066 4148.6 3066" stroke-width="10" c_shapetype="line" stroke-linecap="round" fill="none" layerid="2" locked="0"/><polyline points="4073.8 3066 4073.9561 3087.0706 4103.0155 3116.13 4130.499 3116.13" stroke-width="10" c_shapetype="line" stroke-linecap="round" fill="none" layerid="2" locked="0"/><polyline points="4186 3066 4186 3138 4168 3156 4141 3156 4140.5 3155.5" stroke-width="10" c_shapetype="line" stroke-linecap="round" fill="none" layerid="2" locked="0"/><polyline points="4131 3190.74 4139.258 3190.74 4141.999 3187.999" stroke-width="1.1811" c_shapetype="line" stroke-linecap="round" fill="none" layerid="2" locked="0"/><polyline points="4110.001 3188.001 4110.001 3202.001 4115 3207 4115 3217 4117 3219 4130 3219 4131 3218 4131 3212" stroke-width="1.1811" c_shapetype="line" stroke-linecap="round" fill="none" layerid="2" locked="0"/><polyline points="4121 3190.74 4121 3156 4120.5 3155.5" stroke-width="1.1811" c_shapetype="line" stroke-linecap="round" fill="none" layerid="2" locked="0"/><polyline points="4141.999 3179.999 4141.999 3156.999 4140.5 3155.5" stroke-width="1.1811" c_shapetype="line" stroke-linecap="round" fill="none" layerid="2" locked="0"/><polyline points="4110.001 3180.001 4110.001 3166.001 4108 3164" stroke-width="1.1811" c_shapetype="line" stroke-linecap="round" fill="none" layerid="2" locked="0"/><polyline points="4051 3082 4051 3171 4208 3171 4208 3082" stroke-width="1.1811" c_shapetype="line" stroke-linecap="round" fill="none" layerid="4" locked="0"/><polyline points="4142.311 3140.146 4142.311 3147.626 4138.768 3147.626 4138.768 3140.146" stroke-width="1" c_shapetype="line" stroke-linecap="round" fill="none" layerid="4" locked="0"/><polyline points="4122.311 3140.146 4122.311 3147.626 4118.768 3147.626 4118.768 3140.146" stroke-width="1" c_shapetype="line" stroke-linecap="round" fill="none" layerid="4" locked="0"/><polyline points="4110.815 3137.39 4110.815 3140.146 4150.185 3140.146 4150.185 3137.39" stroke-width="1" c_shapetype="line" stroke-linecap="round" fill="none" layerid="4" locked="0"/><polyline points="4133.7559 3206.0945 4118.441 3206.0945 4118.441 3197.0394 4133.7559 3197.0394 4133.7559 3206.0945" stroke-width="0.8999986" c_shapetype="line" stroke-linecap="round" fill="none" layerid="4" locked="0"/><polyline points="4137.925 3181.815 4137.925 3176.618 4146.075 3176.618 4146.075 3181.815" stroke-width="0.787" c_shapetype="line" stroke-linecap="round" fill="none" layerid="4" locked="0"/><polyline points="4137.925 3186.272 4137.925 3191.469 4146.075 3191.469 4146.075 3186.272" stroke-width="0.787" c_shapetype="line" stroke-linecap="round" fill="none" layerid="4" locked="0"/><polyline points="4114.075 3186.185 4114.075 3191.382 4105.925 3191.382 4105.925 3186.185" stroke-width="0.787" c_shapetype="line" stroke-linecap="round" fill="none" layerid="4" locked="0"/><polyline points="4114.075 3181.728 4114.075 3176.531 4105.925 3176.531 4105.925 3181.728" stroke-width="0.787" c_shapetype="line" stroke-linecap="round" fill="none" layerid="4" locked="0"/><polyline points="4208.639 3050.252 4051.158 3050.252" stroke-width="1" c_shapetype="line" stroke-linecap="round" fill="none" layerid="4" locked="0"/><polyline points="4125.962 3050.252 4125.962 3081.748" stroke-width="1" c_shapetype="line" stroke-linecap="round" fill="none" layerid="4" locked="0"/><polyline points="4208.639 3081.748 4051.158 3081.748" stroke-width="1" c_shapetype="line" stroke-linecap="round" fill="none" layerid="4" locked="0"/><polyline points="4208.639 3050.252 4208.639 3081.748" stroke-width="1" c_shapetype="line" stroke-linecap="round" fill="none" layerid="4" locked="0"/><polyline points="4168.285 3050.252 4168.285 3081.748" stroke-width="1" c_shapetype="line" stroke-linecap="round" fill="none" layerid="4" locked="0"/><polyline points="4164.348 3050.254 4164.348 3081.748" stroke-width="1" c_shapetype="line" stroke-linecap="round" fill="none" layerid="4" locked="0"/><polyline points="4204.702 3050.252 4204.702 3081.748" stroke-width="1" c_shapetype="line" stroke-linecap="round" fill="none" layerid="4" locked="0"/><polyline points="4129.899 3050.252 4129.899 3081.748" stroke-width="1" c_shapetype="line" stroke-linecap="round" fill="none" layerid="4" locked="0"/><polyline points="4051.003 3050.254 4051.003 3081.75" stroke-width="1" c_shapetype="line" stroke-linecap="round" fill="none" layerid="4" locked="0"/><polyline points="4054.94 3050.254 4054.94 3081.75" stroke-width="1" c_shapetype="line" stroke-linecap="round" fill="none" layerid="4" locked="0"/><polyline points="4090.764 3050.251 4090.764 3081.747" stroke-width="1" c_shapetype="line" stroke-linecap="round" fill="none" layerid="4" locked="0"/><polyline points="4094.701 3050.251 4094.701 3081.747" stroke-width="1" c_shapetype="line" stroke-linecap="round" fill="none" layerid="4" locked="0"/><g c_partid="part_pcbtext" c_origin="4078.855,3087.364" c_rotation="0" c_mirror="1" locked="0" layerid="4" c_shapetype="group"><path c_fontSize="8" c_fontFamily="" c_text="L2" d="M 4078.8545 3082.9999 L 4078.8545 3090.6363 M 4078.8545 3090.6363 L 4074.4909 3090.6363 M 4071.7272 3084.8181 L 4071.7272 3084.4544 L 4071.3636 3083.7272 L 4070.9999 3083.3635 L 4070.2727 3082.9999 L 4068.8181 3082.9999 L 4068.0909 3083.3635 L 4067.7272 3083.7272 L 4067.3636 3084.4544 L 4067.3636 3085.1817 L 4067.7272 3085.909 L 4068.4545 3086.9999 L 4072.0909 3090.6363 L 4066.9999 3090.6363" fill="none" stroke-width="0.8"/></g><g c_partid="part_pcbtext" c_origin="4117.582,3087.364" c_rotation="0" c_mirror="1" locked="0" layerid="4" c_shapetype="group"><path c_fontSize="8" c_fontFamily="" c_text="N2" d="M 4117.582 3082.9999 L 4117.582 3090.6363 M 4117.582 3082.9999 L 4112.4911 3090.6363 M 4112.4911 3082.9999 L 4112.4911 3090.6363 M 4109.7275 3084.8181 L 4109.7275 3084.4544 L 4109.3638 3083.7272 L 4109.0002 3083.3635 L 4108.2729 3082.9999 L 4106.8184 3082.9999 L 4106.0911 3083.3635 L 4105.7275 3083.7272 L 4105.3638 3084.4544 L 4105.3638 3085.1817 L 4105.7275 3085.909 L 4106.4548 3086.9999 L 4110.0911 3090.6363 L 4105.0002 3090.6363" fill="none" stroke-width="0.8"/></g><g c_partid="part_pcbtext" c_origin="4153.582,3087.364" c_rotation="0" c_mirror="1" locked="0" layerid="4" c_shapetype="group"><path c_fontSize="8" c_fontFamily="" c_text="N1" d="M4153.582 3082.9999L4153.582 3090.6362M4153.582 3082.9999L4148.4911 3090.6362M4148.4911 3082.9999L4148.4911 3090.6362M4146.0911 3084.4544L4145.3638 3084.0908 4144.2729 3082.9999 4144.2729 3090.6362" fill="none" stroke-width="0.8"/></g><g c_partid="part_pcbtext" c_origin="4191.582,3087.364" c_rotation="0" c_mirror="1" locked="0" layerid="4" c_shapetype="group"><path c_fontSize="8" c_fontFamily="" c_text="L1" d="M 4191.582 3082.9999 L 4191.582 3090.6363 M 4191.582 3090.6363 L 4187.2184 3090.6363 M 4184.8184 3084.4544 L 4184.0911 3084.0908 L 4183.0002 3082.9999 L 4183.0002 3090.6363" fill="none" stroke-width="0.8"/></g><g c_partid="part_pcbtext" c_origin="4201,3144" c_rotation="0" c_mirror="1" locked="0" layerid="4" c_shapetype="group"><path c_fontSize="7.0866" c_fontFamily="" c_text="DANGER" d="M4201 3140.1346L4201 3146.8991M4201 3140.1346L4198.7452 3140.1346 4197.7788 3140.4567 4197.1346 3141.1009 4196.8125 3141.7452 4196.4903 3142.7115 4196.4903 3144.3221 4196.8125 3145.2885 4197.1346 3145.9327 4197.7788 3146.5769 4198.7452 3146.8991 4201 3146.8991M4191.7874 3140.1346L4194.3644 3146.8991M4191.7874 3140.1346L4189.2105 3146.8991M4193.398 3144.6442L4190.1768 3144.6442M4187.0845 3140.1346L4187.0845 3146.8991M4187.0845 3140.1346L4182.57484 3146.8991M4182.57484 3140.1346L4182.57484 3146.8991M4175.6171 3141.7452L4175.9392 3141.1009 4176.5834 3140.4567 4177.2277 3140.1346 4178.5162 3140.1346 4179.1604 3140.4567 4179.8046 3141.1009 4180.1267 3141.7452 4180.44886 3142.7115 4180.44886 3144.3221 4180.1267 3145.2885 4179.8046 3145.9327 4179.1604 3146.5769 4178.5162 3146.8991 4177.2277 3146.8991 4176.5834 3146.5769 4175.9392 3145.9327 4175.6171 3145.2885 4175.6171 3144.3221M4177.2277 3144.3221L4175.6171 3144.3221M4173.4911 3140.1346L4173.4911 3146.8991M4173.4911 3140.1346L4169.3036 3140.1346M4173.4911 3143.3558L4170.9142 3143.3558M4173.4911 3146.8991L4169.3036 3146.8991M4167.1776 3140.1346L4167.1776 3146.8991M4167.1776 3140.1346L4164.2785 3140.1346 4163.3122 3140.4567 4162.9901 3140.7788 4162.6679 3141.4231 4162.6679 3142.0673 4162.9901 3142.7115 4163.3122 3143.0336 4164.2785 3143.3558 4167.1776 3143.3558M4164.9228 3143.3558L4162.6679 3146.8991" fill="none" stroke-width="0.8"/></g><g c_partid="part_pcbtext" c_origin="4200.945,3150.933" c_rotation="0" c_mirror="1" locked="0" layerid="4" c_shapetype="group"><path c_fontSize="3.5433" c_fontFamily="" c_text="HIGH-VOLTAGE" d="M 4200.9453 3148.9999 L 4200.9453 3152.3821 M 4198.6905 3148.9999 L 4198.6905 3152.3821 M 4200.9453 3150.6105 L 4198.6905 3150.6105 M 4197.6275 3148.9999 L 4197.6275 3152.3821 M 4194.1486 3149.8052 L 4194.3097 3149.4831 L 4194.6318 3149.161 L 4194.9539 3148.9999 L 4195.5982 3148.9999 L 4195.9203 3149.161 L 4196.2424 3149.4831 L 4196.4034 3149.8052 L 4196.5645 3150.2884 L 4196.5645 3151.0937 L 4196.4034 3151.5769 L 4196.2424 3151.899 L 4195.9203 3152.2211 L 4195.5982 3152.3821 L 4194.9539 3152.3821 L 4194.6318 3152.2211 L 4194.3097 3151.899 L 4194.1486 3151.5769 L 4194.1486 3151.0937 M 4194.9539 3151.0937 L 4194.1486 3151.0937 M 4193.0856 3148.9999 L 4193.0856 3152.3821 M 4190.8308 3148.9999 L 4190.8308 3152.3821 M 4193.0856 3150.6105 L 4190.8308 3150.6105 M 4189.7678 3150.9326 L 4186.8687 3150.9326 M 4185.8058 3148.9999 L 4184.5173 3152.3821 M 4183.2288 3148.9999 L 4184.5173 3152.3821 M 4181.1995 3148.9999 L 4181.5216 3149.161 L 4181.8437 3149.4831 L 4182.0048 3149.8052 L 4182.1658 3150.2884 L 4182.1658 3151.0937 L 4182.0048 3151.5769 L 4181.8437 3151.899 L 4181.5216 3152.2211 L 4181.1995 3152.3821 L 4180.5552 3152.3821 L 4180.2331 3152.2211 L 4179.911 3151.899 L 4179.7499 3151.5769 L 4179.5889 3151.0937 L 4179.5889 3150.2884 L 4179.7499 3149.8052 L 4179.911 3149.4831 L 4180.2331 3149.161 L 4180.5552 3148.9999 L 4181.1995 3148.9999 M 4178.5259 3148.9999 L 4178.5259 3152.3821 M 4178.5259 3152.3821 L 4176.5932 3152.3821 M 4174.4028 3148.9999 L 4174.4028 3152.3821 M 4175.5302 3148.9999 L 4173.2754 3148.9999 M 4170.9239 3148.9999 L 4172.2124 3152.3821 M 4170.9239 3148.9999 L 4169.6354 3152.3821 M 4171.7292 3151.2547 L 4170.1186 3151.2547 M 4166.1565 3149.8052 L 4166.3176 3149.4831 L 4166.6397 3149.161 L 4166.9618 3148.9999 L 4167.6061 3148.9999 L 4167.9282 3149.161 L 4168.2503 3149.4831 L 4168.4114 3149.8052 L 4168.5724 3150.2884 L 4168.5724 3151.0937 L 4168.4114 3151.5769 L 4168.2503 3151.899 L 4167.9282 3152.2211 L 4167.6061 3152.3821 L 4166.9618 3152.3821 L 4166.6397 3152.2211 L 4166.3176 3151.899 L 4166.1565 3151.5769 L 4166.1565 3151.0937 M 4166.9618 3151.0937 L 4166.1565 3151.0937 M 4165.0936 3148.9999 L 4165.0936 3152.3821 M 4165.0936 3148.9999 L 4162.9998 3148.9999 M 4165.0936 3150.6105 L 4163.8051 3150.6105 M 4165.0936 3152.3821 L 4162.9998 3152.3821" fill="none" stroke-width="0.8"/></g><g c_partid="part_pcbtext" c_origin="4107.65,3137.45" c_rotation="0" c_mirror="1" locked="0" layerid="4" c_shapetype="group"><path c_fontSize="4.5" c_fontFamily="" c_text="BTA16" d="M4107.6499 3134.9955L4107.6499 3139.2909M4107.6499 3134.9955L4105.809 3134.9955 4105.1954 3135.2 4104.9908 3135.4045 4104.7863 3135.8136 4104.7863 3136.2227 4104.9908 3136.6318 4105.1954 3136.8364 4105.809 3137.0409M4107.6499 3137.0409L4105.809 3137.0409 4105.1954 3137.2455 4104.9908 3137.45 4104.7863 3137.8591 4104.7863 3138.4727 4104.9908 3138.8818 4105.1954 3139.0864 4105.809 3139.2909 4107.6499 3139.2909M4102.0044 3134.9955L4102.0044 3139.2909M4103.4363 3134.9955L4100.5726 3134.9955M4097.5863 3134.9955L4099.2226 3139.2909M4097.5863 3134.9955L4095.9499 3139.2909M4098.609 3137.8591L4096.5635 3137.8591M4094.5999 3135.8136L4094.1908 3135.6091 4093.5772 3134.9955 4093.5772 3139.2909M4089.7726 3135.6091L4089.9772 3135.2 4090.5908 3134.9955 4090.9999 3134.9955 4091.6135 3135.2 4092.0226 3135.8136 4092.2272 3136.8364 4092.2272 3137.8591 4092.0226 3138.6773 4091.6135 3139.0864 4090.9999 3139.2909 4090.7954 3139.2909 4090.1817 3139.0864 4089.7726 3138.6773 4089.5681 3138.0636 4089.5681 3137.8591 4089.7726 3137.2455 4090.1817 3136.8364 4090.7954 3136.6318 4090.9999 3136.6318 4091.6135 3136.8364 4092.0226 3137.2455 4092.2272 3137.8591" fill="none" stroke-width="0.7" c_note="note_pre"/></g><g c_partid="part_pcbtext" c_origin="4131,3084" c_rotation="0" c_mirror="" locked="0" layerid="4" c_shapetype="group" display="none"><path c_fontSize="4.5" c_fontFamily="" c_text="BTA16" d="M 4131 3081.55 L 4131 3085.84 M 4131 3081.55 L 4129.16 3081.55 L 4128.55 3081.75 L 4128.34 3081.95 L 4128.14 3082.36 L 4128.14 3082.77 L 4128.34 3083.18 L 4128.55 3083.39 L 4129.16 3083.59 M 4131 3083.59 L 4129.16 3083.59 L 4128.55 3083.8 L 4128.34 3084 L 4128.14 3084.41 L 4128.14 3085.02 L 4128.34 3085.43 L 4128.55 3085.64 L 4129.16 3085.84 L 4131 3085.84 M 4125.35 3081.55 L 4125.35 3085.84 M 4126.79 3081.55 L 4123.92 3081.55 M 4120.94 3081.55 L 4122.57 3085.84 M 4120.94 3081.55 L 4119.3 3085.84 M 4121.96 3084.41 L 4119.91 3084.41 M 4117.95 3082.36 L 4117.54 3082.16 L 4116.93 3081.55 L 4116.93 3085.84 M 4113.12 3082.16 L 4113.33 3081.75 L 4113.94 3081.55 L 4114.35 3081.55 L 4114.96 3081.75 L 4115.37 3082.36 L 4115.58 3083.39 L 4115.58 3084.41 L 4115.37 3085.23 L 4114.96 3085.64 L 4114.35 3085.84 L 4114.15 3085.84 L 4113.53 3085.64 L 4113.12 3085.23 L 4112.92 3084.61 L 4112.92 3084.41 L 4113.12 3083.8 L 4113.53 3083.39 L 4114.15 3083.18 L 4114.35 3083.18 L 4114.96 3083.39 L 4115.37 3083.8 L 4115.58 3084.41" fill="none" stroke-width="0.5" c_note="note_name"/></g><g c_partid="part_pcbtext" c_origin="4136.55,3205" c_rotation="0" c_mirror="" locked="0" layerid="4" c_shapetype="group"><path c_fontSize="4.5" c_fontFamily="" c_text="U3" d="M 4136.5498 3202.55 L 4136.5498 3205.61 L 4136.3498 3206.23 L 4135.9398 3206.64 L 4135.3198 3206.84 L 4134.9098 3206.84 L 4134.2998 3206.64 L 4133.8898 3206.23 L 4133.6898 3205.61 L 4133.6898 3202.55 M 4131.9298 3202.55 L 4129.6798 3202.55 L 4130.8998 3204.18 L 4130.2898 3204.18 L 4129.8798 3204.39 L 4129.6798 3204.59 L 4129.4698 3205.2 L 4129.4698 3205.61 L 4129.6798 3206.23 L 4130.0898 3206.64 L 4130.6998 3206.84 L 4131.3098 3206.84 L 4131.9298 3206.64 L 4132.1298 3206.43 L 4132.3398 3206.02" fill="none" stroke-width="0.7" c_note="note_pre"/></g><g c_partid="part_pcbtext" c_origin="4127,3173" c_rotation="0" c_mirror="" locked="0" layerid="4" c_shapetype="group" display="none"><path c_fontSize="4.5" c_fontFamily="" c_text="MOC3041SR2M" d="M 4127 3170.55 L 4127 3174.84 M 4127 3170.55 L 4125.36 3174.84 M 4123.73 3170.55 L 4125.36 3174.84 M 4123.73 3170.55 L 4123.73 3174.84 M 4121.15 3170.55 L 4121.56 3170.75 L 4121.97 3171.16 L 4122.17 3171.57 L 4122.38 3172.18 L 4122.38 3173.2 L 4122.17 3173.82 L 4121.97 3174.23 L 4121.56 3174.64 L 4121.15 3174.84 L 4120.33 3174.84 L 4119.92 3174.64 L 4119.51 3174.23 L 4119.31 3173.82 L 4119.1 3173.2 L 4119.1 3172.18 L 4119.31 3171.57 L 4119.51 3171.16 L 4119.92 3170.75 L 4120.33 3170.55 L 4121.15 3170.55 M 4114.69 3171.57 L 4114.89 3171.16 L 4115.3 3170.75 L 4115.71 3170.55 L 4116.53 3170.55 L 4116.94 3170.75 L 4117.35 3171.16 L 4117.55 3171.57 L 4117.75 3172.18 L 4117.75 3173.2 L 4117.55 3173.82 L 4117.35 3174.23 L 4116.94 3174.64 L 4116.53 3174.84 L 4115.71 3174.84 L 4115.3 3174.64 L 4114.89 3174.23 L 4114.69 3173.82 M 4112.93 3170.55 L 4110.68 3170.55 L 4111.9 3172.18 L 4111.29 3172.18 L 4110.88 3172.39 L 4110.68 3172.59 L 4110.47 3173.2 L 4110.47 3173.61 L 4110.68 3174.23 L 4111.09 3174.64 L 4111.7 3174.84 L 4112.31 3174.84 L 4112.93 3174.64 L 4113.13 3174.43 L 4113.34 3174.02 M 4107.9 3170.55 L 4108.51 3170.75 L 4108.92 3171.36 L 4109.12 3172.39 L 4109.12 3173 L 4108.92 3174.02 L 4108.51 3174.64 L 4107.9 3174.84 L 4107.49 3174.84 L 4106.87 3174.64 L 4106.46 3174.02 L 4106.26 3173 L 4106.26 3172.39 L 4106.46 3171.36 L 4106.87 3170.75 L 4107.49 3170.55 L 4107.9 3170.55 M 4102.86 3170.55 L 4104.91 3173.41 L 4101.84 3173.41 M 4102.86 3170.55 L 4102.86 3174.84 M 4100.49 3171.36 L 4100.08 3171.16 L 4099.47 3170.55 L 4099.47 3174.84 M 4095.25 3171.16 L 4095.66 3170.75 L 4096.28 3170.55 L 4097.1 3170.55 L 4097.71 3170.75 L 4098.12 3171.16 L 4098.12 3171.57 L 4097.91 3171.98 L 4097.71 3172.18 L 4097.3 3172.39 L 4096.07 3172.8 L 4095.66 3173 L 4095.46 3173.2 L 4095.25 3173.61 L 4095.25 3174.23 L 4095.66 3174.64 L 4096.28 3174.84 L 4097.1 3174.84 L 4097.71 3174.64 L 4098.12 3174.23 M 4093.9 3170.55 L 4093.9 3174.84 M 4093.9 3170.55 L 4092.06 3170.55 L 4091.45 3170.75 L 4091.25 3170.95 L 4091.04 3171.36 L 4091.04 3171.77 L 4091.25 3172.18 L 4091.45 3172.39 L 4092.06 3172.59 L 4093.9 3172.59 M 4092.47 3172.59 L 4091.04 3174.84 M 4089.49 3171.57 L 4089.49 3171.36 L 4089.28 3170.95 L 4089.08 3170.75 L 4088.67 3170.55 L 4087.85 3170.55 L 4087.44 3170.75 L 4087.24 3170.95 L 4087.03 3171.36 L 4087.03 3171.77 L 4087.24 3172.18 L 4087.65 3172.8 L 4089.69 3174.84 L 4086.83 3174.84 M 4085.48 3170.55 L 4085.48 3174.84 M 4085.48 3170.55 L 4083.84 3174.84 M 4082.2 3170.55 L 4083.84 3174.84 M 4082.2 3170.55 L 4082.2 3174.84" fill="none" stroke-width="0.5" c_note="note_name"/></g><g c_partid="part_pcbtext" c_origin="4144.24,3195.45" c_rotation="0" c_mirror="" locked="0" layerid="4" c_shapetype="group"><path c_fontSize="4.5" c_fontFamily="" c_text="R1" d="M 4144.2402 3193 L 4144.2402 3197.29 M 4144.2402 3193 L 4142.4002 3193 L 4141.7902 3193.2 L 4141.5802 3193.4 L 4141.3802 3193.81 L 4141.3802 3194.22 L 4141.5802 3194.63 L 4141.7902 3194.84 L 4142.4002 3195.04 L 4144.2402 3195.04 M 4142.8102 3195.04 L 4141.3802 3197.29 M 4140.0302 3193.81 L 4139.6202 3193.61 L 4139.0002 3193 L 4139.0002 3197.29" fill="none" stroke-width="0.7" c_note="note_pre"/></g><g c_partid="part_pcbtext" c_origin="4160,3185" c_rotation="270" c_mirror="" locked="0" layerid="4" c_shapetype="group" display="none"><path c_fontSize="4.5" c_fontFamily="" c_text="360" d="M 4162.45 3184.59 L 4162.45 3182.34 L 4160.82 3183.57 L 4160.82 3182.95 L 4160.61 3182.55 L 4160.41 3182.34 L 4159.8 3182.14 L 4159.39 3182.14 L 4158.77 3182.34 L 4158.36 3182.75 L 4158.16 3183.36 L 4158.16 3183.98 L 4158.36 3184.59 L 4158.57 3184.8 L 4158.98 3185 M 4161.84 3178.33 L 4162.25 3178.54 L 4162.45 3179.15 L 4162.45 3179.56 L 4162.25 3180.17 L 4161.64 3180.58 L 4160.61 3180.79 L 4159.59 3180.79 L 4158.77 3180.58 L 4158.36 3180.17 L 4158.16 3179.56 L 4158.16 3179.35 L 4158.36 3178.74 L 4158.77 3178.33 L 4159.39 3178.13 L 4159.59 3178.13 L 4160.2 3178.33 L 4160.61 3178.74 L 4160.82 3179.35 L 4160.82 3179.56 L 4160.61 3180.17 L 4160.2 3180.58 L 4159.59 3180.79 M 4162.45 3175.55 L 4162.25 3176.16 L 4161.64 3176.57 L 4160.61 3176.78 L 4160 3176.78 L 4158.98 3176.57 L 4158.36 3176.16 L 4158.16 3175.55 L 4158.16 3175.14 L 4158.36 3174.53 L 4158.98 3174.12 L 4160 3173.91 L 4160.61 3173.91 L 4161.64 3174.12 L 4162.25 3174.53 L 4162.45 3175.14 L 4162.45 3175.55" fill="none" stroke-width="0.5" c_note="note_name"/></g><g c_partid="part_pcbtext" c_origin="4114.08,3195.45" c_rotation="0" c_mirror="" locked="0" layerid="4" c_shapetype="group"><path c_fontSize="4.5" c_fontFamily="" c_text="R2" d="M 4114.0799 3192.9999 L 4114.0799 3197.2899 M 4114.0799 3192.9999 L 4112.2399 3192.9999 L 4111.6299 3193.1999 L 4111.4199 3193.3999 L 4111.2199 3193.8099 L 4111.2199 3194.2199 L 4111.4199 3194.6299 L 4111.6299 3194.8399 L 4112.2399 3195.0399 L 4114.0799 3195.0399 M 4112.6499 3195.0399 L 4111.2199 3197.2899 M 4109.6599 3194.0199 L 4109.6599 3193.8099 L 4109.4599 3193.3999 L 4109.2499 3193.1999 L 4108.8399 3192.9999 L 4108.0299 3192.9999 L 4107.6199 3193.1999 L 4107.4099 3193.3999 L 4107.2099 3193.8099 L 4107.2099 3194.2199 L 4107.4099 3194.6299 L 4107.8199 3195.2499 L 4109.8699 3197.2899 L 4106.9999 3197.2899" fill="none" stroke-width="0.7" c_note="note_pre"/></g><g c_partid="part_pcbtext" c_origin="4092,3183" c_rotation="90" c_mirror="" locked="0" layerid="4" c_shapetype="group" display="none"><path c_fontSize="4.5" c_fontFamily="" c_text="560" d="M 4089.55 3185.45 L 4089.55 3183.41 L 4091.39 3183.2 L 4091.18 3183.41 L 4090.98 3184.02 L 4090.98 3184.64 L 4091.18 3185.25 L 4091.59 3185.66 L 4092.2 3185.86 L 4092.61 3185.86 L 4093.23 3185.66 L 4093.64 3185.25 L 4093.84 3184.64 L 4093.84 3184.02 L 4093.64 3183.41 L 4093.43 3183.2 L 4093.02 3183 M 4090.16 3189.67 L 4089.75 3189.46 L 4089.55 3188.85 L 4089.55 3188.44 L 4089.75 3187.83 L 4090.36 3187.42 L 4091.39 3187.21 L 4092.41 3187.21 L 4093.23 3187.42 L 4093.64 3187.83 L 4093.84 3188.44 L 4093.84 3188.65 L 4093.64 3189.26 L 4093.23 3189.67 L 4092.61 3189.87 L 4092.41 3189.87 L 4091.8 3189.67 L 4091.39 3189.26 L 4091.18 3188.65 L 4091.18 3188.44 L 4091.39 3187.83 L 4091.8 3187.42 L 4092.41 3187.21 M 4089.55 3192.45 L 4089.75 3191.84 L 4090.36 3191.43 L 4091.39 3191.22 L 4092 3191.22 L 4093.02 3191.43 L 4093.64 3191.84 L 4093.84 3192.45 L 4093.84 3192.86 L 4093.64 3193.47 L 4093.02 3193.88 L 4092 3194.09 L 4091.39 3194.09 L 4090.36 3193.88 L 4089.75 3193.47 L 4089.55 3192.86 L 4089.55 3192.45" fill="none" stroke-width="0.5" c_note="note_name"/></g><g c_partid="part_pcbtext" c_origin="4123.24,3055.45" c_rotation="0" c_mirror="" locked="0" layerid="4" c_shapetype="group"><path c_fontSize="4.5" c_fontFamily="" c_text="P1" d="M 4123.2402 3053 L 4123.2402 3057.29 M 4123.2402 3053 L 4121.4002 3053 L 4120.7902 3053.2 L 4120.5802 3053.4 L 4120.3802 3053.81 L 4120.3802 3054.43 L 4120.5802 3054.84 L 4120.7902 3055.04 L 4121.4002 3055.25 L 4123.2402 3055.25 M 4119.0302 3053.81 L 4118.6202 3053.61 L 4118.0002 3053 L 4118.0002 3057.29" fill="none" stroke-width="0.7" c_note="note_pre"/></g><g c_partid="part_pcbtext" c_origin="4130,3037" c_rotation="0" c_mirror="" locked="0" layerid="4" c_shapetype="group" display="none"><path c_fontSize="4.5" c_fontFamily="" c_text="TERMINAL" d="M 4128.57 3034.55 L 4128.57 3038.84 M 4130 3034.55 L 4127.14 3034.55 M 4125.79 3034.55 L 4125.79 3038.84 M 4125.79 3034.55 L 4123.13 3034.55 M 4125.79 3036.59 L 4124.15 3036.59 M 4125.79 3038.84 L 4123.13 3038.84 M 4121.78 3034.55 L 4121.78 3038.84 M 4121.78 3034.55 L 4119.94 3034.55 L 4119.32 3034.75 L 4119.12 3034.95 L 4118.91 3035.36 L 4118.91 3035.77 L 4119.12 3036.18 L 4119.32 3036.39 L 4119.94 3036.59 L 4121.78 3036.59 M 4120.35 3036.59 L 4118.91 3038.84 M 4117.56 3034.55 L 4117.56 3038.84 M 4117.56 3034.55 L 4115.93 3038.84 M 4114.29 3034.55 L 4115.93 3038.84 M 4114.29 3034.55 L 4114.29 3038.84 M 4112.94 3034.55 L 4112.94 3038.84 M 4111.59 3034.55 L 4111.59 3038.84 M 4111.59 3034.55 L 4108.73 3038.84 M 4108.73 3034.55 L 4108.73 3038.84 M 4105.74 3034.55 L 4107.38 3038.84 M 4105.74 3034.55 L 4104.1 3038.84 M 4106.76 3037.41 L 4104.72 3037.41 M 4102.75 3034.55 L 4102.75 3038.84 M 4102.75 3038.84 L 4100.3 3038.84" fill="none" stroke-width="0.5" c_note="note_name"/></g><g layerid="4" c_partid="part_svg" c_shapetype="group"><path d="M 4185 3103 C 4196.9716 3126.4168 4201.8476 3136.3383 4201.7543 3137.0911 L 4201.6495 3137.9377 L 4182.0565 3137.9377 L 4162.4636 3137.9377 L 4162.3863 3136.9758 C 4162.2694 3135.5203 4181.0371 3098.7363 4181.9787 3098.5755 C 4182.5531 3098.4775 4183.0897 3099.2633 4185 3103 M 4174.1859 3118.558 C 4169.9491 3127.045 4166.4324 3134.1416 4166.3711 3134.3282 C 4166.3076 3134.5211 4173.0751 3134.6675 4182.0565 3134.6675 C 4191.4297 3134.6675 4197.8083 3134.5248 4197.742 3134.3166 C 4197.4812 3133.4967 4182.2087 3103.1301 4182.0565 3103.1287 C 4181.9644 3103.1278 4178.4227 3110.071 4174.1859 3118.558 M 4182.1653 3112.6414 C 4182.5422 3113.3742 4185.106 3124.3674 4184.9436 3124.5539 C 4184.8426 3124.67 4183.9202 3124.3734 4182.8938 3123.8949 C 4181.8674 3123.4163 4180.9491 3123.115 4180.8532 3123.2253 C 4180.4968 3123.6347 4182.1564 3129.2812 4182.6331 3129.2812 C 4183.1295 3129.2812 4183.0482 3129.8524 4182.236 3132.0715 L 4181.8301 3133.1802 L 4180.7871 3131.3382 C 4180.1512 3130.2154 4179.8787 3129.4006 4180.0891 3129.2513 C 4180.3119 3129.0931 4180.0278 3127.3163 4179.2876 3124.2383 C 4178.6571 3121.616 4178.2532 3119.4186 4178.3902 3119.3552 C 4178.5272 3119.2919 4179.5666 3119.6729 4180.7001 3120.202 C 4183.1298 3121.3362 4183.1133 3121.5427 4181.013 3116.2959 C 4180.2975 3114.5083 4179.7121 3112.8898 4179.7121 3112.6993 C 4179.7121 3112.2828 4181.9537 3112.2299 4182.1653 3112.6414" stroke="none"/></g><g layerid="4" c_partid="part_svg" c_shapetype="group"><path d="M 4183 3175 C 4183.0453 3175.1209 4183.1765 3175.7919 4183.2914 3176.4909 L 4183.5003 3177.7621 L 4184.3668 3178.154 C 4185.5158 3178.6734 4185.5854 3178.6637 4186.8314 3177.809 C 4188.1502 3176.9044 4187.9643 3176.8878 4189.0719 3178.0085 C 4190.1811 3179.1308 4190.1667 3178.944 4189.2518 3180.3509 C 4188.0868 3182.1422 4188.6476 3183.5741 4190.6577 3183.9404 C 4191.3072 3184.0586 4191.9288 3184.1905 4192.0389 3184.2333 C 4192.2593 3184.319 4192.3364 3187.2119 4192.1189 3187.2369 C 4192.0529 3187.2445 4191.4237 3187.3735 4190.7208 3187.5235 L 4189.4428 3187.7962 L 4188.9876 3188.9193 L 4188.5325 3190.0423 L 4189.2648 3191.1684 C 4190.1649 3192.5524 4190.1802 3192.3694 4189.0719 3193.4907 C 4187.9641 3194.6115 4188.1587 3194.5949 4186.8178 3193.6832 L 4185.7238 3192.9393 L 4185.2288 3193.2299 C 4184.6097 3193.5931 4184.7298 3193.755 4183.6186 3191.0604 L 4182.6775 3188.7785 L 4183.4233 3188.0413 C 4185.5013 3185.9869 4184.3373 3182.8026 4181.5083 3182.8026 C 4178.729 3182.8026 4177.5601 3186.0123 4179.6004 3188.0418 L 4180.3411 3188.7785 L 4179.4146 3191.0468 C 4178.3214 3193.7233 4178.416 3193.5959 4177.7924 3193.2299 L 4177.2973 3192.9393 L 4176.2034 3193.6832 C 4174.8624 3194.5949 4175.0571 3194.6115 4173.9493 3193.4907 C 4172.841 3192.3694 4172.8563 3192.5524 4173.7563 3191.1684 L 4174.4887 3190.0423 L 4174.0336 3188.9193 L 4173.5784 3187.7962 L 4172.3004 3187.5235 C 4171.5974 3187.3735 4170.9684 3187.2445 4170.9023 3187.2369 C 4170.6848 3187.2119 4170.7619 3184.319 4170.9823 3184.2333 C 4171.0925 3184.1905 4171.714 3184.0586 4172.3635 3183.9404 C 4174.3736 3183.5741 4174.9344 3182.1422 4173.7695 3180.3509 C 4172.8571 3178.948 4172.8423 3179.1523 4173.9397 3178.0184 C 4175.0357 3176.886 4174.8669 3176.9016 4176.1898 3177.809 C 4177.4358 3178.6637 4177.5054 3178.6734 4178.6544 3178.154 L 4179.5209 3177.7621 L 4179.7298 3176.4909 C 4179.8446 3175.7919 4179.9758 3175.1209 4180.0212 3175 C 4180.1389 3174.6863 4182.8823 3174.6863 4183 3175 M 4180.4891 3175.7215 C 4180.4438 3175.8792 4180.3609 3176.3027 4180.3047 3176.6629 C 4180.0686 3178.1777 4179.9696 3178.3225 4178.859 3178.7771 C 4177.4788 3179.3421 4177.2786 3179.3206 4176.0467 3178.4756 L 4174.9896 3177.7506 L 4174.3128 3178.4557 L 4173.636 3179.1608 L 4174.3999 3180.3354 C 4175.248 3181.6394 4175.2464 3181.5314 4174.4421 3183.3907 C 4174.0757 3184.2375 4173.924 3184.3322 4172.5035 3184.6003 L 4171.4227 3184.8043 L 4171.4227 3185.8217 L 4171.4227 3186.839 L 4172.4909 3187.0403 C 4173.9546 3187.3161 4174.047 3187.3886 4174.5442 3188.6512 C 4175.1187 3190.1101 4175.1036 3190.297 4174.32 3191.4158 L 4173.6546 3192.3661 L 4174.3714 3193.099 L 4175.0883 3193.8319 L 4176.043 3193.1471 C 4176.9798 3192.4753 4177.551 3192.3007 4177.7477 3192.626 C 4177.9641 3192.9841 4178.1395 3192.7155 4178.8748 3190.8997 L 4179.6403 3189.0097 L 4179.0621 3188.4029 C 4176.5542 3185.7713 4178.8688 3181.467 4182.3347 3182.3172 C 4185.0175 3182.9752 4185.9176 3186.3477 4183.9591 3188.4029 L 4183.3808 3189.0097 L 4184.1463 3190.8997 C 4184.8817 3192.7155 4185.057 3192.9841 4185.2736 3192.626 C 4185.4629 3192.3128 4185.9637 3192.4664 4186.9514 3193.1408 L 4187.9452 3193.8194 L 4188.6556 3193.093 L 4189.3662 3192.3665 L 4188.701 3191.3956 C 4187.9233 3190.2606 4187.9106 3190.1053 4188.4789 3188.6966 C 4189.0516 3187.2771 4189.0256 3187.2993 4190.3984 3187.0592 L 4191.5985 3186.8494 L 4191.5985 3185.8269 L 4191.5985 3184.8043 L 4190.5177 3184.6003 C 4189.0972 3184.3322 4188.9455 3184.2375 4188.5792 3183.3907 C 4187.7748 3181.5314 4187.7733 3181.6394 4188.6213 3180.3354 L 4189.3851 3179.1608 L 4188.7121 3178.4596 L 4188.0389 3177.7583 L 4186.8447 3178.5555 L 4185.6505 3179.3526 L 4184.6614 3178.9659 C 4184.1173 3178.7531 4183.5497 3178.5283 4183.3998 3178.4661 C 4183.1124 3178.3469 4182.8858 3177.7488 4182.7165 3176.6629 C 4182.5226 3175.4195 4182.5379 3175.435 4181.5106 3175.435 C 4180.7542 3175.435 4180.5554 3175.4908 4180.4891 3175.7215 M 4194.5904 3196.8804 C 4195.3292 3197.1923 4195.5605 3198.7258 4194.9612 3199.3387 C 4194.3123 3200.0022 4193.1672 3199.6701 4192.9423 3198.7532 C 4192.626 3197.4651 4193.5333 3196.4343 4194.5904 3196.8804 M 4192.3992 3200.5666 C 4192.3992 3203.8775 4192.3656 3204.4141 4192.1589 3204.4141 C 4191.9779 3204.4141 4191.9188 3204.2152 4191.9188 3203.6062 C 4191.9188 3201.4998 4190.7969 3201.26 4190.6674 3203.3387 C 4190.5667 3204.956 4190.1573 3204.843 4190.1573 3203.1979 C 4190.1573 3201.7092 4190.3767 3201.3882 4191.3069 3201.5158 L 4191.9188 3201.5997 L 4191.9188 3200.5666 L 4191.9188 3199.5336 L 4191.2539 3199.6247 C 4190.3884 3199.7434 4190.1573 3199.4359 4190.1573 3198.1652 C 4190.1573 3197.0011 4190.628 3196.5199 4191.4545 3196.8389 C 4191.7134 3196.9389 4191.9188 3196.9519 4191.9188 3196.8686 C 4191.9188 3196.7864 4192.0269 3196.7191 4192.1589 3196.7191 C 4192.3656 3196.7191 4192.3992 3197.2557 4192.3992 3200.5666 M 4189.284 3197.121 C 4189.7513 3197.5987 4189.8252 3198.7219 4189.4277 3199.3023 C 4189.1377 3199.7256 4187.9216 3199.8224 4187.6163 3199.4465 C 4187.3512 3199.1197 4187.5711 3199.0034 4188.2452 3199.1136 C 4188.7484 3199.1959 4188.8752 3199.1557 4189.0269 3198.8659 C 4189.201 3198.5333 4189.1741 3198.52 4188.3216 3198.52 L 4187.4352 3198.52 L 4187.4352 3197.9589 C 4187.4352 3196.8895 4188.5593 3196.3801 4189.284 3197.121 M 4186.8481 3196.8282 C 4187.1429 3197.1296 4186.9589 3199.6662 4186.6422 3199.6662 C 4186.3713 3199.6662 4186.3233 3199.5322 4186.282 3198.6599 C 4186.1962 3196.8505 4185.1935 3196.7924 4185.1935 3198.5968 C 4185.1935 3199.5647 4185.1624 3199.6662 4184.8663 3199.6662 C 4184.3035 3199.6662 4184.4716 3197.4489 4185.0688 3196.994 C 4185.4343 3196.7156 4185.5696 3196.6926 4185.9094 3196.8508 C 4186.1545 3196.9651 4186.3144 3196.9763 4186.3144 3196.8794 C 4186.3144 3196.6979 4186.6859 3196.6624 4186.8481 3196.8282 M 4182.4312 3196.9665 C 4183.1434 3197.4851 4182.8065 3198.2941 4181.7899 3198.5067 C 4181.4899 3198.5695 4181.2705 3198.7163 4181.2705 3198.8543 C 4181.2705 3199.1618 4182.0921 3199.2651 4182.4078 3198.9973 C 4182.595 3198.8384 4182.6858 3198.8382 4182.8384 3198.9964 C 4183.1345 3199.3035 4182.5423 3199.6662 4181.7451 3199.6662 C 4180.3797 3199.6662 4180.0821 3198.234 4181.4017 3198.0146 C 4182.139 3197.8921 4182.4929 3197.5987 4182.0928 3197.4418 C 4181.9434 3197.3831 4181.6098 3197.3782 4181.3517 3197.431 C 4181.0911 3197.4843 4180.8362 3197.4503 4180.7781 3197.3544 C 4180.496 3196.8877 4181.8778 3196.5633 4182.4312 3196.9665 M 4179.5386 3196.884 C 4180.2301 3197.1688 4180.4851 3198.5652 4179.9803 3199.3023 C 4179.6646 3199.7631 4178.6409 3199.8095 4178.2718 3199.3796 C 4177.2388 3198.1769 4178.1793 3196.324 4179.5386 3196.884 M 4177.3473 3197.9353 C 4177.3473 3199.4579 4177.1875 3199.6577 4175.981 3199.643 L 4175.1056 3199.6323 L 4175.1056 3198.1637 C 4175.1056 3196.2282 4175.6313 3195.9993 4175.7132 3197.8991 C 4175.7958 3199.819 4176.867 3199.6065 4176.867 3197.6702 C 4176.867 3196.9339 4176.9212 3196.7191 4177.1072 3196.7191 C 4177.2991 3196.7191 4177.3473 3196.9634 4177.3473 3197.9353 M 4174.3583 3196.8282 C 4174.6533 3197.1298 4174.469 3199.6662 4174.1521 3199.6662 C 4173.8773 3199.6662 4173.8334 3199.5319 4173.7919 3198.561 C 4173.7451 3197.469 4173.7392 3197.4558 4173.2892 3197.449 C 4172.7171 3197.4406 4172.3911 3196.9544 4172.8562 3196.8034 C 4173.0299 3196.7471 4173.3144 3196.7789 4173.4885 3196.8742 C 4173.6985 3196.9891 4173.8385 3196.9922 4173.9044 3196.8832 C 4174.0189 3196.6938 4174.2047 3196.6713 4174.3583 3196.8282 M 4171.8526 3196.884 C 4172.5908 3197.1881 4172.823 3198.7256 4172.2234 3199.3387 C 4171.6797 3199.8946 4170.0117 3199.6478 4170.4729 3199.0797 C 4170.6173 3198.9018 4170.718 3198.8889 4170.8815 3199.0275 C 4171.2066 3199.3034 4171.8538 3199.0704 4171.9596 3198.6394 C 4172.175 3197.7622 4171.7727 3197.3409 4170.7984 3197.4233 C 4170.2659 3197.4685 4170.2069 3197.1433 4170.7055 3196.9111 C 4171.1813 3196.6894 4171.3694 3196.685 4171.8526 3196.884 M 4169.445 3196.8818 C 4170.9643 3197.5086 4169.9334 3200.0268 4168.3289 3199.6082 C 4167.7144 3199.448 4167.8718 3199.0788 4168.526 3199.1459 C 4169.0226 3199.1968 4169.5011 3198.9602 4169.5011 3198.6638 C 4169.5011 3198.5848 4169.1049 3198.52 4168.6205 3198.52 C 4167.7457 3198.52 4167.7398 3198.5167 4167.7398 3198.0214 C 4167.7398 3197.0988 4168.5914 3196.5297 4169.445 3196.8818 M 4193.5521 3198.1249 C 4193.4974 3198.8872 4193.793 3199.2643 4194.313 3199.0955 C 4194.6453 3198.9878 4194.8071 3197.7623 4194.5267 3197.4756 C 4194.156 3197.0965 4193.5992 3197.4674 4193.5521 3198.1249 M 4190.7887 3197.8082 C 4190.5557 3198.4348 4190.8064 3199.0932 4191.2782 3199.0932 C 4191.5382 3199.0932 4191.6941 3198.9637 4191.7906 3198.6676 C 4191.9812 3198.0831 4191.7003 3197.374 4191.2782 3197.374 C 4191.0705 3197.374 4190.8908 3197.5333 4190.7887 3197.8082 M 4188.0757 3197.4425 C 4188.0757 3197.4801 4188.032 3197.6274 4187.9786 3197.7699 C 4187.8996 3197.9801 4188.0051 3198.0289 4188.539 3198.0289 C 4189.2172 3198.0289 4189.3373 3197.9107 4189.0045 3197.5704 C 4188.8274 3197.3894 4188.0757 3197.2858 4188.0757 3197.4425 M 4178.5654 3197.633 C 4178.2482 3198.4781 4178.6381 3199.2978 4179.2612 3199.0955 C 4179.5888 3198.9893 4179.7569 3197.7638 4179.4823 3197.4832 C 4179.2785 3197.2748 4178.6621 3197.3755 4178.5654 3197.633 M 4168.4099 3197.7424 C 4168.3674 3197.9719 4168.4706 3198.0289 4168.929 3198.0289 C 4169.473 3198.0289 4169.6817 3197.7769 4169.387 3197.4756 C 4169.1733 3197.2571 4168.464 3197.4507 4168.4099 3197.7424 M 4183.1119 3200.8664 L 4183.1119 3201.5997 L 4183.7305 3201.5148 C 4184.4847 3201.4114 4184.8733 3201.8503 4184.8733 3202.8057 C 4184.8733 3204.0148 4184.2251 3204.6844 4183.46 3204.2657 C 4183.2234 3204.1362 4183.121 3204.1403 4183.0752 3204.2812 C 4182.7679 3205.2237 4182.4641 3204.1385 4182.5064 3202.25 C 4182.5536 3200.1479 4183.1119 3198.8721 4183.1119 3200.8664 M 4172.4931 3201.4698 C 4173.2828 3201.7917 4173.4626 3203.3256 4172.7911 3204.0123 C 4172.3505 3204.4627 4172.1705 3204.4924 4171.4465 3204.2344 C 4170.5879 3203.9283 4170.7843 3203.6953 4171.8514 3203.7542 C 4172.2199 3203.7745 4172.4091 3203.6888 4172.5375 3203.4433 C 4172.708 3203.1177 4172.6764 3203.1043 4171.7358 3203.1043 L 4170.7567 3203.1043 L 4170.8652 3202.5723 C 4171.0488 3201.6711 4171.7771 3201.178 4172.4931 3201.4698 M 4189.4368 3201.6308 C 4189.6254 3201.9427 4189.3483 3202.1001 4188.7774 3202.0052 C 4188.3787 3201.9391 4188.1607 3201.9798 4188.0621 3202.1389 C 4187.8206 3202.5289 4187.896 3202.6131 4188.4866 3202.6131 C 4189.3007 3202.6131 4189.677 3202.8657 4189.677 3203.4122 C 4189.677 3204.0983 4189.2566 3204.3847 4188.2759 3204.3669 L 4187.4352 3204.3516 L 4187.4352 3203.1667 C 4187.4352 3201.7032 4188.8324 3200.631 4189.4368 3201.6308 M 4186.7947 3202.9564 C 4186.7947 3204.305 4186.7708 3204.4141 4186.4745 3204.4141 C 4186.1851 3204.4141 4186.1543 3204.305 4186.1543 3203.2791 C 4186.1543 3202.1464 4185.8802 3201.7073 4185.3732 3202.0278 C 4185.2943 3202.0776 4185.146 3202.0152 4185.0437 3201.8892 C 4184.7876 3201.5736 4184.9948 3201.4843 4185.9644 3201.492 L 4186.7947 3201.4985 L 4186.7947 3202.9564 M 4182.1511 3201.5802 C 4182.1511 3201.6423 4181.9554 3202.3078 4181.7161 3203.0589 C 4181.2042 3204.6661 4180.9291 3204.7654 4180.5502 3203.4801 C 4180.2059 3202.312 4180.16 3202.3096 4179.8519 3203.4427 C 4179.4695 3204.8491 4179.178 3204.7202 4178.6231 3202.8997 C 4178.2207 3201.5791 4178.209 3201.4671 4178.4736 3201.4671 C 4178.6869 3201.4671 4178.8371 3201.7288 4179.0584 3202.4867 L 4179.3562 3203.5063 L 4179.6601 3202.48 C 4180.0256 3201.246 4180.326 3201.198 4180.6962 3202.3151 C 4181.0563 3203.4017 4181.1364 3203.4095 4181.3617 3202.3803 C 4181.5328 3201.5985 4182.1511 3200.9718 4182.1511 3201.5802 M 4177.7542 3201.6417 C 4177.9178 3201.9124 4177.6942 3202.0401 4177.0572 3202.0401 C 4176.6297 3202.0401 4176.4592 3202.1167 4176.4186 3202.3266 C 4176.3743 3202.5553 4176.4751 3202.6131 4176.9175 3202.6131 C 4177.7468 3202.6131 4178.2657 3203.1053 4178.0618 3203.6983 C 4177.8664 3204.2664 4177.1585 3204.5768 4176.7105 3204.2907 C 4176.4861 3204.1474 4176.3939 3204.1462 4176.3484 3204.2858 C 4176.1463 3204.9056 4175.7461 3204.2026 4175.7461 3203.2278 C 4175.7461 3201.7473 4177.1485 3200.6396 4177.7542 3201.6417 M 4175.1056 3202.9695 C 4175.1056 3204.1445 4175.0607 3204.4141 4174.8654 3204.4141 C 4174.677 3204.4141 4174.6252 3204.189 4174.6252 3203.37 C 4174.6252 3202.2913 4174.3873 3201.8281 4173.9262 3202.009 C 4173.705 3202.0958 4173.3441 3201.8442 4173.3441 3201.6033 C 4173.3441 3201.5342 4173.7406 3201.4883 4174.2249 3201.5013 L 4175.1056 3201.5249 L 4175.1056 3202.9695 M 4183.304 3202.1547 C 4183.0833 3202.3804 4183.0518 3203.2451 4183.2525 3203.569 C 4183.5484 3204.0462 4184.1493 3203.7195 4184.203 3203.052 C 4184.2757 3202.15 4183.7864 3201.6617 4183.304 3202.1547 M 4171.6148 3202.1547 C 4171.2832 3202.4938 4171.4015 3202.6131 4172.0688 3202.6131 C 4172.6653 3202.6131 4172.7018 3202.5881 4172.5436 3202.2857 C 4172.3518 3201.9194 4171.9064 3201.8566 4171.6148 3202.1547 M 4187.9156 3203.1728 C 4187.9156 3203.5192 4188.1811 3203.7593 4188.5638 3203.7593 C 4189.041 3203.7593 4189.2833 3203.5439 4189.1166 3203.2681 C 4189.0233 3203.1138 4187.9156 3203.0259 4187.9156 3203.1728 M 4176.4162 3203.3909 C 4176.4835 3203.7537 4177.5075 3203.9043 4177.5075 3203.5513 C 4177.5075 3203.2111 4177.3454 3203.1043 4176.8285 3203.1043 C 4176.4718 3203.1043 4176.3755 3203.1712 4176.4162 3203.3909" stroke="none"/></g><polygon points="4116.5488 3075.2949 4104.7378 3075.2949 4104.7378 3079.2319 4116.5488 3079.2319" stroke-width="0" c_shapetype="line" stroke-linecap="round" type="solid" layerid="4" locked="0" c_teardrop="" c_targetpad="" c_targetwire=""/><polygon points="4079.147 3075.2949 4067.3359 3075.2949 4067.3359 3079.2319 4079.147 3079.2319" stroke-width="0" c_shapetype="line" stroke-linecap="round" type="solid" layerid="4" locked="0" c_teardrop="" c_targetpad="" c_targetwire=""/><polygon points="4154.5049 3075.843 4142.6938 3075.843 4142.6938 3079.78 4154.5049 3079.78" stroke-width="0" c_shapetype="line" stroke-linecap="round" type="solid" layerid="4" locked="0" c_teardrop="" c_targetpad="" c_targetwire=""/><polygon points="4191.9072 3075.843 4180.0962 3075.843 4180.0962 3079.78 4191.9072 3079.78" stroke-width="0" c_shapetype="line" stroke-linecap="round" type="solid" layerid="4" locked="0" c_teardrop="" c_targetpad="" c_targetwire=""/><circle cx="4131.5" cy="3204" r="1" stroke-width="1" fill="none" layerid="4" locked="0" c_shapetype="line"/><path d="M 4145.46 3143.69 A 0.7874 0.7874 0 1 1 4145.46 3143.7" locked="0" c_shapetype="line" fill="none" stroke-width="1.5748" c_helper_type="arc2" layerid="4"/><g c_partid="part_pad" c_etype="pinpart" c_origin="4108,3164" layerid="8" plated="Y" locked="0" c_rotation="0" c_width="4.7244" c_height="4.7244" c_shape="ELLIPSE"><ellipse cx="4108" cy="3164" rx="2.3622" ry="2.3622" stroke-width="0"/><circle cx="4108" cy="3164" r="1.1811" stroke-width="0"/></g><g c_partid="part_pad" c_etype="pinpart" c_origin="4065,3211" layerid="8" plated="Y" locked="0" c_rotation="0" c_width="5.5118" c_height="5.5118" c_shape="RECT"><polygon points="4062.2441 3208.2441 4067.7559 3208.2441 4067.7559 3213.7559 4062.2441 3213.7559" stroke-width="0"/><circle cx="4065" cy="3211" r="1.75" stroke-width="0"/></g><g c_partid="part_pad" c_etype="pinpart" c_origin="4072.874,3211" layerid="8" plated="Y" locked="0" c_rotation="0" c_width="5.5118" c_height="5.5118" c_shape="ELLIPSE"><ellipse cx="4072.874" cy="3211" rx="2.7559" ry="2.7559" stroke-width="0"/><circle cx="4072.874" cy="3211" r="1.75" stroke-width="0"/></g><g c_partid="part_pad" c_etype="pinpart" c_origin="4167,3211" layerid="8" plated="Y" locked="0" c_rotation="0" c_width="6.6929" c_height="6.6929" c_shape="RECT"><polygon points="4163.654 3207.654 4170.346 3207.654 4170.346 3214.346 4163.654 3214.346" stroke-width="0"/><circle cx="4167" cy="3211" r="2.1654" stroke-width="0"/></g><g c_partid="part_pad" c_etype="pinpart" c_origin="4177,3211" layerid="8" plated="Y" locked="0" c_rotation="0" c_width="6.6929" c_height="6.6929" c_shape="ELLIPSE"><ellipse cx="4177" cy="3211" rx="3.34645" ry="3.34645" stroke-width="0"/><circle cx="4177" cy="3211" r="2.1654" stroke-width="0"/></g><g c_partid="part_pad" c_etype="pinpart" c_origin="4187,3211" layerid="8" plated="Y" locked="0" c_rotation="0" c_width="6.6929" c_height="6.6929" c_shape="ELLIPSE"><ellipse cx="4187" cy="3211" rx="3.34645" ry="3.34645" stroke-width="0"/><circle cx="4187" cy="3211" r="2.1654" stroke-width="0"/></g><g c_partid="part_pad" c_etype="pinpart" c_origin="4197,3211" layerid="8" plated="Y" locked="0" c_rotation="0" c_width="6.6929" c_height="6.6929" c_shape="ELLIPSE"><ellipse cx="4197" cy="3211" rx="3.34645" ry="3.34645" stroke-width="0"/><circle cx="4197" cy="3211" r="2.1654" stroke-width="0"/></g><g c_partid="part_pad" c_etype="pinpart" c_origin="4140.5,3155.5" layerid="8" plated="Y" locked="0" c_rotation="180" c_width="5.9055" c_height="11.811" c_shape="RECT"><polygon points="4137.5472 3161.4055 4143.4528 3161.4055 4143.4528 3149.5945 4137.5472 3149.5945" stroke-width="0"/><circle cx="4140.5" cy="3155.5" r="0.001" stroke-width="0"/></g><g c_partid="part_pad" c_etype="pinpart" c_origin="4120.5,3155.5" layerid="8" plated="Y" locked="0" c_rotation="180" c_width="5.9055" c_height="11.811" c_shape="RECT"><polygon points="4117.5472 3161.4055 4123.4528 3161.4055 4123.4528 3149.5945 4117.5472 3149.5945" stroke-width="0"/><circle cx="4120.5" cy="3155.5" r="0.001" stroke-width="0"/></g><g c_partid="part_pad" c_etype="pinpart" c_origin="4130.499,3116.13" layerid="8" plated="Y" locked="0" c_rotation="180" c_width="39.7638" c_height="39.3701" c_shape="RECT"><polygon points="4110.618 3135.815 4150.38 3135.815 4150.38 3096.445 4110.618 3096.445" stroke-width="0"/><circle cx="4130.499" cy="3116.13" r="0.001" stroke-width="0"/></g><g c_partid="part_pad" c_etype="pinpart" c_origin="4131,3212" layerid="8" plated="Y" locked="0" c_rotation="0" c_width="2.76" c_height="8.66" c_shape="RECT"><polygon points="4132.38 3207.67 4129.62 3207.67 4129.62 3216.33 4132.38 3216.33" stroke-width="0"/><circle cx="4131" cy="3212" r="0.001" stroke-width="0"/></g><g c_partid="part_pad" c_etype="pinpart" c_origin="4126,3212" layerid="8" plated="Y" locked="0" c_rotation="0" c_width="2.76" c_height="8.66" c_shape="RECT"><polygon points="4127.38 3207.67 4124.62 3207.67 4124.62 3216.33 4127.38 3216.33" stroke-width="0"/><circle cx="4126" cy="3212" r="0.001" stroke-width="0"/></g><g c_partid="part_pad" c_etype="pinpart" c_origin="4121,3212" layerid="8" plated="Y" locked="0" c_rotation="0" c_width="2.76" c_height="8.66" c_shape="RECT"><polygon points="4122.38 3207.67 4119.62 3207.67 4119.62 3216.33 4122.38 3216.33" stroke-width="0"/><circle cx="4121" cy="3212" r="0.001" stroke-width="0"/></g><g c_partid="part_pad" c_etype="pinpart" c_origin="4121,3190.74" layerid="8" plated="Y" locked="0" c_rotation="0" c_width="2.76" c_height="8.66" c_shape="RECT"><polygon points="4122.38 3186.41 4119.62 3186.41 4119.62 3195.07 4122.38 3195.07" stroke-width="0"/><circle cx="4121" cy="3190.74" r="0.001" stroke-width="0"/></g><g c_partid="part_pad" c_etype="pinpart" c_origin="4126,3190.74" layerid="8" plated="Y" locked="0" c_rotation="0" c_width="2.76" c_height="8.66" c_shape="RECT"><polygon points="4127.38 3186.41 4124.62 3186.41 4124.62 3195.07 4127.38 3195.07" stroke-width="0"/><circle cx="4126" cy="3190.74" r="0.001" stroke-width="0"/></g><g c_partid="part_pad" c_etype="pinpart" c_origin="4131,3190.74" layerid="8" plated="Y" locked="0" c_rotation="0" c_width="2.76" c_height="8.66" c_shape="RECT"><polygon points="4132.38 3186.41 4129.62 3186.41 4129.62 3195.07 4132.38 3195.07" stroke-width="0"/><circle cx="4131" cy="3190.74" r="0.001" stroke-width="0"/></g><g c_partid="part_pad" c_etype="pinpart" c_origin="4142,3188" layerid="8" plated="Y" locked="0" c_rotation="270" c_width="4.567" c_height="5.787" c_shape="RECT"><polygon points="4144.893 3190.283 4144.893 3185.716 4139.106 3185.716 4139.106 3190.283" stroke-width="0"/><circle cx="4142" cy="3188" r="0.001" stroke-width="0"/></g><g c_partid="part_pad" c_etype="pinpart" c_origin="4142,3180" layerid="8" plated="Y" locked="0" c_rotation="270" c_width="4.567" c_height="5.787" c_shape="RECT"><polygon points="4144.893 3182.283 4144.893 3177.716 4139.106 3177.716 4139.106 3182.283" stroke-width="0"/><circle cx="4142" cy="3180" r="0.001" stroke-width="0"/></g><g c_partid="part_pad" c_etype="pinpart" c_origin="4110.001,3180.001" layerid="8" plated="Y" locked="0" c_rotation="90" c_width="4.567" c_height="5.787" c_shape="RECT"><polygon points="4107.107 3177.717 4107.107 3182.284 4112.894 3182.284 4112.894 3177.717" stroke-width="0"/><circle cx="4110.001" cy="3180.001" r="0.001" stroke-width="0"/></g><g c_partid="part_pad" c_etype="pinpart" c_origin="4110.001,3188.001" layerid="8" plated="Y" locked="0" c_rotation="90" c_width="4.567" c_height="5.787" c_shape="RECT"><polygon points="4107.107 3185.717 4107.107 3190.284 4112.894 3190.284 4112.894 3185.717" stroke-width="0"/><circle cx="4110.001" cy="3188.001" r="0.001" stroke-width="0"/></g><g c_partid="part_pad" c_etype="pinpart" c_origin="4186,3066" layerid="8" plated="Y" locked="0" c_rotation="0" c_width="12.5984" c_height="8.6614" c_shape="OVAL"><polyline points="4184.0315 3066 4187.9685 3066" stroke-width="8.6614"/><polyline points="4187.576 3066 4184.426 3066" stroke-width="4.724"/></g><g c_partid="part_pad" c_etype="pinpart" c_origin="4148.6,3066" layerid="8" plated="Y" locked="0" c_rotation="0" c_width="12.5984" c_height="8.6614" c_shape="OVAL"><polyline points="4146.6315 3066 4150.5685 3066" stroke-width="8.6614"/><polyline points="4150.175 3066 4147.025 3066" stroke-width="4.724"/></g><g c_partid="part_pad" c_etype="pinpart" c_origin="4111.2,3066" layerid="8" plated="Y" locked="0" c_rotation="0" c_width="12.5984" c_height="8.6614" c_shape="OVAL"><polyline points="4109.2315 3066 4113.1685 3066" stroke-width="8.6614"/><polyline points="4112.775 3066 4109.625 3066" stroke-width="4.724"/></g><g c_partid="part_pad" c_etype="pinpart" c_origin="4073.8,3066" layerid="8" plated="Y" locked="0" c_rotation="0" c_width="12.5984" c_height="8.6614" c_shape="OVAL"><polyline points="4071.8315 3066 4075.7685 3066" stroke-width="8.6614"/><polyline points="4075.37 3066 4072.22 3066" stroke-width="4.724"/></g></g></svg>